<svg width="372" height="264" viewBox="0 0 372 264" fill="none" xmlns="http://www.w3.org/2000/svg">
<g clip-path="url(#clip0_315_10629)">
<rect x="0.71875" y="42.5615" width="345.999" height="222.95" rx="16.3788" transform="rotate(-6.946 0.71875 42.5615)" fill="#0A0B2E"/>
<mask id="mask0_315_10629" style="mask-type:alpha" maskUnits="userSpaceOnUse" x="-14" y="-12" width="432" height="302">
<rect x="-13.4688" y="36.925" width="403.259" height="254.626" transform="rotate(-6.946 -13.4688 36.925)" fill="white"/>
</mask>
<g mask="url(#mask0_315_10629)">
<rect x="-3.79297" y="35.7458" width="403.259" height="254.626" transform="rotate(-6.946 -3.79297 35.7458)" fill="#4542FB"/>
</g>
<path d="M319.188 52.855V52.855C328.872 51.6751 335.81 42.8623 334.63 33.1776V33.1776C333.45 23.4929 324.6 16.6036 314.915 17.7834V17.7834L319.188 52.855Z" fill="white"/>
<path d="M315.996 26.6681C320.72 26.0927 325.02 29.4994 325.602 34.2772C326.184 39.055 322.827 43.3947 318.104 43.9701L315.996 26.6681Z" fill="#CACACA"/>
<path d="M315.993 26.6681C311.008 27.2755 307.438 31.641 308.02 36.4188C308.602 41.1966 313.116 44.5775 318.101 43.9701L315.993 26.6681Z" fill="white" fill-opacity="0.51"/>
<path d="M235.678 40.5226L236.642 48.4384L238.018 48.2708L237.354 42.8209L237.428 42.812L240.277 47.9721L241.305 47.8469L242.833 42.1653L242.906 42.1563L243.569 47.5946L244.945 47.427L243.98 39.5111L242.226 39.7249L240.574 45.7471L240.482 45.7584L237.433 40.3088L235.678 40.5226ZM249.395 38.8515L247.961 39.0262L248.925 46.9421L250.359 46.7674L249.395 38.8515ZM257.933 40.0197L259.313 39.8516C259.123 38.5175 257.868 37.7095 256.182 37.9148C254.52 38.1172 253.386 39.2047 253.56 40.6034C253.699 41.7398 254.586 42.2946 255.929 42.4722L256.858 42.5943C257.739 42.7067 258.336 42.9047 258.414 43.5188C258.493 44.1956 257.906 44.726 256.971 44.84C256.074 44.9492 255.33 44.632 255.17 43.8081L253.76 43.9799C254.009 45.546 255.288 46.2884 257.132 46.0638C259.03 45.8326 260.016 44.7515 259.85 43.3557C259.679 41.984 258.47 41.4958 257.245 41.3587L256.48 41.2636C255.812 41.1881 255.075 40.9994 255.003 40.3375C254.934 39.7418 255.414 39.24 256.311 39.1308C257.165 39.0267 257.778 39.3561 257.933 40.0197ZM263.818 45.1277L268.738 44.5283L268.592 43.3262L265.105 43.751L264.287 37.0372L262.853 37.2119L263.818 45.1277ZM273.715 43.9219L274.131 41.8904L277.107 41.5278L278.002 43.3997L279.533 43.2132L275.778 35.6373L274.007 35.853L272.185 44.1084L273.715 43.9219ZM274.377 40.6915L275.059 37.3723L275.121 37.3648L276.58 40.4231L274.377 40.6915ZM288.535 34.0832L287.108 34.2569L287.766 39.6527L287.696 39.6612L283.313 34.7193L282.03 34.8757L282.994 42.7915L284.428 42.6168L283.771 37.2249L283.837 37.2169L288.223 42.1544L289.499 41.999L288.535 34.0832ZM296.163 41.1872C298.574 40.8934 299.823 39.2272 299.521 36.7535C299.221 34.2875 297.61 32.9775 295.252 33.2648L292.516 33.5982L293.48 41.514L296.163 41.1872ZM294.763 40.0986L294.101 34.6642L295.322 34.5154C296.93 34.3195 297.878 35.114 298.099 36.9268C298.321 38.7473 297.592 39.7539 295.942 39.955L294.763 40.0986Z" fill="#FAFAFA"/>
<path d="M172.595 209.784L165.833 210.608L165.681 209.36L168.691 205.901C169.13 205.395 169.481 204.891 169.744 204.388C170.005 203.875 170.104 203.357 170.04 202.835L170.019 202.661C169.945 202.051 169.728 201.601 169.369 201.311C169.008 201.011 168.514 200.9 167.885 200.977C167.265 201.052 166.806 201.27 166.506 201.63C166.215 201.98 166.019 202.426 165.918 202.969L164.78 202.695C164.84 202.383 164.936 202.077 165.066 201.777C165.205 201.465 165.391 201.182 165.625 200.928C165.859 200.673 166.152 200.456 166.503 200.276C166.864 200.094 167.291 199.974 167.785 199.914C168.288 199.852 168.742 199.871 169.146 199.969C169.561 200.065 169.914 200.229 170.207 200.458C170.51 200.686 170.751 200.971 170.93 201.312C171.119 201.653 171.239 202.036 171.291 202.461C171.338 202.848 171.324 203.218 171.249 203.571C171.184 203.923 171.069 204.266 170.903 204.6C170.748 204.933 170.548 205.267 170.304 205.601C170.068 205.924 169.799 206.252 169.496 206.583L166.966 209.395L172.466 208.725L172.595 209.784ZM181.297 208.724L174.534 209.548L174.382 208.3L177.392 204.84C177.832 204.335 178.183 203.831 178.445 203.328C178.707 202.815 178.806 202.297 178.742 201.775L178.721 201.6C178.647 200.991 178.43 200.541 178.07 200.251C177.71 199.951 177.215 199.84 176.586 199.916C175.967 199.992 175.508 200.21 175.208 200.57C174.917 200.92 174.721 201.366 174.62 201.909L173.482 201.635C173.542 201.323 173.637 201.017 173.768 200.716C173.907 200.405 174.093 200.122 174.327 199.868C174.561 199.613 174.854 199.396 175.205 199.216C175.566 199.034 175.993 198.914 176.486 198.854C176.989 198.792 177.443 198.811 177.848 198.909C178.262 199.005 178.616 199.168 178.909 199.398C179.212 199.626 179.453 199.911 179.632 200.252C179.821 200.593 179.941 200.976 179.993 201.401C180.04 201.788 180.026 202.158 179.951 202.511C179.886 202.863 179.771 203.206 179.605 203.54C179.449 203.873 179.25 204.207 179.005 204.541C178.77 204.864 178.501 205.191 178.197 205.523L175.668 208.335L181.168 207.665L181.297 208.724ZM183.756 210.457L187.219 196.81L188.263 196.682L184.801 210.33L183.756 210.457ZM195.282 207.197C194.663 207.272 194.117 207.221 193.644 207.043C193.169 206.856 192.76 206.557 192.415 206.147C192.071 205.738 191.791 205.217 191.577 204.585C191.362 203.953 191.205 203.222 191.103 202.389C191.003 201.567 190.981 200.824 191.038 200.159C191.093 199.484 191.239 198.907 191.475 198.427C191.711 197.946 192.037 197.563 192.454 197.276C192.869 196.98 193.387 196.795 194.006 196.719C194.625 196.644 195.172 196.7 195.647 196.887C196.12 197.065 196.529 197.359 196.873 197.769C197.218 198.179 197.498 198.704 197.713 199.346C197.928 199.977 198.085 200.704 198.185 201.527C198.287 202.359 198.309 203.107 198.253 203.772C198.196 204.437 198.05 205.009 197.814 205.49C197.578 205.97 197.252 206.358 196.836 206.654C196.42 206.941 195.902 207.122 195.282 207.197ZM195.153 206.138C195.56 206.088 195.899 205.968 196.17 205.778C196.44 205.578 196.645 205.323 196.784 205.011C196.932 204.699 197.025 204.334 197.063 203.917C197.099 203.49 197.086 203.02 197.023 202.508L196.822 200.853C196.761 200.35 196.661 199.896 196.523 199.491C196.386 199.085 196.207 198.748 195.988 198.481C195.778 198.212 195.519 198.017 195.21 197.898C194.9 197.769 194.541 197.729 194.135 197.779C193.729 197.828 193.39 197.953 193.12 198.153C192.849 198.343 192.639 198.594 192.49 198.907C192.352 199.218 192.264 199.587 192.228 200.014C192.191 200.441 192.204 200.905 192.265 201.408L192.467 203.063C192.529 203.576 192.629 204.035 192.767 204.44C192.903 204.836 193.077 205.168 193.286 205.437C193.505 205.705 193.77 205.904 194.08 206.033C194.389 206.152 194.747 206.187 195.153 206.138ZM194.749 202.814C194.41 202.856 194.165 202.817 194.013 202.698C193.87 202.578 193.787 202.421 193.764 202.227L193.725 201.908C193.701 201.715 193.744 201.542 193.854 201.392C193.972 201.24 194.201 201.143 194.54 201.102C194.879 201.061 195.119 201.1 195.261 201.22C195.413 201.339 195.501 201.495 195.525 201.689L195.563 202.008C195.587 202.202 195.539 202.374 195.42 202.526C195.311 202.677 195.087 202.773 194.749 202.814ZM200.843 206.343L200.714 205.284L203.616 204.93L202.621 196.759L202.519 196.772L200.255 199.463L199.45 198.78L201.829 195.943L203.73 195.711L204.835 204.781L207.506 204.456L207.635 205.515L200.843 206.343Z" fill="white"/>
<path d="M48.8453 214.581L51.6752 214.236C52.9136 214.085 53.8894 214.398 54.6027 215.175C55.3159 215.952 55.7745 217.178 55.9784 218.852C56.1823 220.525 56.0314 221.825 55.5256 222.751C55.0198 223.676 54.1477 224.215 52.9093 224.365L50.0794 224.71L48.8453 214.581ZM52.7222 223.313C53.5349 223.214 54.1102 222.859 54.4482 222.249C54.7959 221.637 54.9072 220.818 54.7823 219.793L54.5913 218.225C54.4664 217.2 54.1617 216.432 53.6774 215.921C53.2026 215.41 52.5589 215.203 51.7463 215.302L50.1934 215.491L51.1694 223.502L52.7222 223.313ZM63.1343 212.84L64.0484 220.343C64.1003 220.768 64.0748 221.164 63.9722 221.53C63.8695 221.896 63.6974 222.217 63.456 222.491C63.2242 222.765 62.9328 222.992 62.5816 223.172C62.2293 223.343 61.8355 223.455 61.4001 223.508C60.6261 223.602 59.9634 223.482 59.412 223.146C58.8594 222.801 58.4615 222.275 58.2183 221.568L59.3492 221.18C59.4223 221.378 59.5088 221.563 59.6086 221.738C59.7169 221.901 59.847 222.043 59.9989 222.162C60.1594 222.27 60.3459 222.35 60.5585 222.403C60.7711 222.455 61.0177 222.465 61.2983 222.43C61.8497 222.363 62.2566 222.156 62.5188 221.81C62.7895 221.453 62.8842 220.941 62.8028 220.274L62.0444 214.048L58.3873 214.493L58.2582 213.434L63.1343 212.84ZM70.4738 222.358C70.0772 222.406 69.7866 222.358 69.6021 222.214C69.4272 222.068 69.3245 221.87 69.2939 221.618L69.262 221.357C69.2314 221.105 69.2834 220.888 69.4182 220.705C69.5626 220.52 69.8332 220.404 70.2299 220.355C70.6265 220.307 70.9123 220.356 71.0871 220.501C71.2716 220.646 71.3792 220.844 71.4099 221.095L71.4417 221.357C71.4723 221.608 71.4154 221.826 71.271 222.011C71.1362 222.194 70.8705 222.31 70.4738 222.358ZM81.7864 220.847L80.5784 218.064L77.0228 218.497L76.5184 221.489L75.2559 221.643L77.1274 211.135L78.7383 210.939L83.078 220.69L81.7864 220.847ZM78.141 212.322L78.0104 212.338L77.184 217.402L80.159 217.04L78.141 212.322ZM84.8283 211.773L84.7268 211.785L85.7717 220.362L84.6687 220.496L83.4346 210.367L85.1616 210.156L89.6498 218.225L89.7514 218.213L88.7171 209.723L89.8201 209.589L91.0542 219.718L89.3272 219.929L84.8283 211.773ZM92.3541 209.28L95.184 208.935C96.4224 208.784 97.3982 209.098 98.1114 209.875C98.8247 210.652 99.2833 211.877 99.4872 213.551C99.6911 215.225 99.5401 216.524 99.0343 217.45C98.5285 218.376 97.6565 218.914 96.4181 219.065L93.5882 219.41L92.3541 209.28ZM96.231 218.013C97.0436 217.914 97.619 217.559 97.957 216.948C98.3046 216.336 98.416 215.518 98.291 214.492L98.1001 212.925C97.9752 211.899 97.6705 211.131 97.1861 210.621C96.7114 210.109 96.0677 209.903 95.255 210.002L93.7022 210.191L94.6781 218.202L96.231 218.013ZM102.217 218.358L100.983 208.229L107.224 207.468L107.353 208.528L102.331 209.14L102.747 212.55L107.594 211.96L107.723 213.019L102.876 213.609L103.307 217.15L108.329 216.539L108.458 217.598L102.217 218.358ZM112.138 217.15L110.919 217.298L109.685 207.169L113.371 206.72C114.31 206.605 115.057 206.774 115.613 207.227C116.169 207.68 116.503 208.366 116.614 209.285C116.715 210.107 116.582 210.791 116.216 211.336C115.851 211.881 115.266 212.242 114.463 212.419L117.58 216.487L116.216 216.653L113.222 212.629L111.611 212.825L112.138 217.15ZM113.924 211.498C114.437 211.435 114.818 211.261 115.068 210.975C115.326 210.679 115.427 210.293 115.369 209.819L115.277 209.065C115.219 208.591 115.03 208.246 114.709 208.029C114.397 207.802 113.984 207.72 113.471 207.782L111.033 208.08L111.486 211.795L113.924 211.498ZM122.661 216.045C121.751 216.155 120.986 216.082 120.366 215.823C119.744 215.555 119.213 215.183 118.772 214.707L119.568 213.873C120.025 214.318 120.486 214.635 120.951 214.824C121.425 215.012 121.967 215.069 122.577 214.994C123.312 214.905 123.853 214.667 124.198 214.281C124.544 213.896 124.68 213.398 124.606 212.788C124.546 212.295 124.359 211.93 124.045 211.693C123.73 211.447 123.218 211.308 122.507 211.277L121.352 211.226C120.848 211.199 120.416 211.119 120.056 210.986C119.706 210.852 119.415 210.677 119.182 210.459C118.948 210.233 118.77 209.979 118.648 209.7C118.524 209.41 118.443 209.106 118.404 208.787C118.291 207.858 118.51 207.12 119.062 206.571C119.613 206.023 120.407 205.686 121.442 205.56C122.255 205.461 122.953 205.513 123.538 205.717C124.132 205.919 124.629 206.246 125.027 206.699L124.261 207.543C123.936 207.21 123.561 206.951 123.136 206.767C122.711 206.583 122.184 206.53 121.555 206.606C120.868 206.69 120.358 206.899 120.026 207.234C119.694 207.569 119.563 208.027 119.634 208.608C119.689 209.062 119.87 209.418 120.176 209.676C120.491 209.922 121.014 210.064 121.745 210.103L122.857 210.159C123.361 210.186 123.793 210.266 124.153 210.399C124.512 210.532 124.809 210.707 125.041 210.924C125.284 211.14 125.467 211.392 125.59 211.682C125.714 211.971 125.796 212.28 125.836 212.609C125.95 213.548 125.73 214.321 125.176 214.928C124.631 215.534 123.793 215.907 122.661 216.045ZM131.391 214.981C130.772 215.056 130.226 215.005 129.753 214.827C129.278 214.639 128.869 214.341 128.524 213.931C128.18 213.521 127.9 213.001 127.686 212.369C127.471 211.737 127.314 211.005 127.212 210.173C127.112 209.351 127.09 208.607 127.147 207.943C127.202 207.268 127.348 206.691 127.584 206.21C127.82 205.73 128.146 205.347 128.563 205.06C128.978 204.764 129.496 204.578 130.115 204.503C130.734 204.428 131.281 204.484 131.755 204.671C132.229 204.849 132.638 205.143 132.982 205.553C133.327 205.962 133.607 206.488 133.822 207.129C134.037 207.761 134.194 208.488 134.294 209.311C134.396 210.143 134.418 210.891 134.362 211.556C134.305 212.22 134.159 212.793 133.923 213.273C133.687 213.754 133.361 214.142 132.945 214.438C132.529 214.725 132.011 214.905 131.391 214.981ZM131.262 213.921C131.669 213.872 132.003 213.753 132.264 213.564C132.525 213.365 132.729 213.109 132.878 212.797C133.026 212.484 133.115 212.12 133.142 211.704C133.179 211.278 133.166 210.808 133.103 210.295L132.902 208.641C132.841 208.138 132.741 207.683 132.603 207.278C132.475 206.871 132.302 206.534 132.082 206.266C131.863 205.998 131.604 205.804 131.304 205.684C131.004 205.553 130.65 205.513 130.244 205.562C129.838 205.612 129.504 205.736 129.244 205.935C128.982 206.124 128.777 206.374 128.628 206.687C128.48 207 128.387 207.369 128.351 207.796C128.324 208.221 128.342 208.686 128.403 209.189L128.605 210.843C128.667 211.356 128.762 211.816 128.89 212.222C129.027 212.618 129.205 212.95 129.424 213.218C129.643 213.485 129.903 213.685 130.204 213.815C130.503 213.935 130.856 213.971 131.262 213.921ZM137.039 205.412L136.937 205.424L137.982 214.001L136.879 214.136L135.645 204.006L137.372 203.796L141.86 211.865L141.962 211.852L140.928 203.362L142.031 203.228L143.265 213.358L141.538 213.568L137.039 205.412Z" fill="white"/>
<path d="M154.38 214.035L152.793 201.003L153.809 200.879L155.396 213.911L154.38 214.035Z" fill="white"/>
<path d="M48.8479 185.763C48.2384 185.837 47.6806 185.812 47.1744 185.687C46.6768 185.551 46.2423 185.329 45.8709 185.021C45.4983 184.703 45.1949 184.308 44.9607 183.836C44.7264 183.364 44.5721 182.823 44.4979 182.213C44.4118 181.507 44.4418 180.826 44.5877 180.17C44.7324 179.504 44.9465 178.884 45.23 178.31C45.522 177.724 45.8597 177.192 46.2432 176.713C46.6364 176.233 47.033 175.822 47.433 175.479L50.4371 175.113C49.8612 175.625 49.3465 176.114 48.8929 176.582C48.4478 177.039 48.0614 177.493 47.7336 177.946C47.4142 178.387 47.1596 178.835 46.9696 179.291C46.7892 179.745 46.6759 180.225 46.6296 180.731L46.7655 180.759C46.829 180.555 46.9124 180.353 47.0158 180.154C47.1192 179.955 47.2546 179.776 47.4219 179.618C47.588 179.451 47.7867 179.309 48.018 179.192C48.2589 179.075 48.5439 178.996 48.8728 178.956C49.2985 178.904 49.7046 178.933 50.0911 179.043C50.4764 179.143 50.8168 179.318 51.1122 179.566C51.4161 179.804 51.669 180.107 51.871 180.476C52.0729 180.844 52.2034 181.27 52.2623 181.753C52.3248 182.266 52.2906 182.751 52.1598 183.209C52.029 183.667 51.8138 184.076 51.5141 184.437C51.2228 184.786 50.8508 185.077 50.3979 185.309C49.9451 185.541 49.4284 185.692 48.8479 185.763ZM48.6266 184.067C49.149 184.003 49.5292 183.819 49.7671 183.515C50.0038 183.202 50.0915 182.793 50.0302 182.29L50.0054 182.087C49.9442 181.584 49.7573 181.219 49.4449 180.992C49.141 180.754 48.7327 180.666 48.2199 180.729C47.7265 180.789 47.356 180.972 47.1084 181.277C46.8597 181.572 46.7659 181.971 46.8272 182.474L46.852 182.678C46.9133 183.181 47.0916 183.557 47.387 183.805C47.6909 184.043 48.1041 184.13 48.6266 184.067ZM66.0085 183.495L58.7233 184.383L58.4811 182.395L61.3503 179.35C61.844 178.809 62.1906 178.349 62.39 177.972C62.5894 177.594 62.6656 177.211 62.6184 176.824L62.6008 176.679C62.5489 176.254 62.3842 175.95 62.1067 175.767C61.8281 175.576 61.4759 175.506 61.0502 175.557C60.5665 175.616 60.2111 175.802 59.984 176.114C59.757 176.427 59.6138 176.783 59.5546 177.183L57.565 176.689C57.6387 176.327 57.7583 175.978 57.9237 175.644C58.088 175.3 58.3108 174.993 58.5921 174.723C58.8831 174.452 59.2283 174.223 59.6279 174.037C60.0262 173.841 60.4963 173.71 61.0381 173.644C61.5895 173.577 62.0924 173.594 62.5466 173.696C63.0008 173.798 63.3944 173.966 63.7273 174.2C64.0603 174.435 64.3271 174.731 64.5279 175.09C64.7275 175.438 64.8538 175.83 64.9068 176.266C64.9587 176.692 64.9339 177.092 64.8323 177.468C64.7393 177.833 64.5859 178.185 64.3721 178.525C64.1679 178.864 63.9142 179.2 63.611 179.531C63.3174 179.862 62.9996 180.195 62.6576 180.531L60.9096 182.261L65.7857 181.667L66.0085 183.495ZM72.8575 182.661L72.6436 180.905L75.3719 180.573L74.5445 173.781L74.4139 173.797L72.682 176.747L71.1562 175.828L73.1908 172.341L76.5286 171.934L77.5488 180.308L79.6966 180.046L79.9105 181.802L72.8575 182.661ZM92.423 173.9C92.5102 174.616 92.4808 175.302 92.3349 175.958C92.189 176.614 91.9701 177.235 91.6781 177.82C91.3946 178.395 91.0563 178.922 90.6631 179.402C90.2796 179.881 89.8879 180.292 89.4879 180.635L86.4838 181.001C87.0596 180.489 87.5701 180.005 88.0152 179.548C88.4688 179.08 88.8552 178.626 89.1746 178.184C89.5024 177.732 89.7564 177.279 89.9368 176.825C90.1268 176.37 90.245 175.889 90.2913 175.382L90.1554 175.355C90.0918 175.559 90.0036 175.761 89.8905 175.961C89.7871 176.161 89.6524 176.344 89.4862 176.511C89.3286 176.668 89.1293 176.805 88.8884 176.923C88.6571 177.04 88.377 177.118 88.048 177.158C87.6223 177.21 87.2168 177.186 86.8315 177.085C86.445 176.975 86.0998 176.801 85.7959 176.563C85.5005 176.315 85.2518 176.006 85.0499 175.638C84.8479 175.27 84.7175 174.844 84.6586 174.36C84.5961 173.847 84.6302 173.362 84.761 172.904C84.8918 172.447 85.1028 172.043 85.394 171.693C85.6938 171.333 86.0701 171.037 86.5229 170.805C86.9758 170.573 87.4924 170.421 88.0729 170.351C88.6825 170.276 89.236 170.307 89.7337 170.443C90.2398 170.568 90.6792 170.789 91.0517 171.107C91.4231 171.415 91.7259 171.806 91.9602 172.278C92.1944 172.75 92.3487 173.291 92.423 173.9ZM88.7009 175.385C89.1944 175.325 89.5655 175.147 89.8142 174.851C90.0618 174.546 90.1549 174.142 90.0936 173.639L90.0689 173.436C90.0076 172.933 89.825 172.562 89.5211 172.325C89.2257 172.076 88.8167 171.983 88.2943 172.047C87.7719 172.111 87.3923 172.299 87.1556 172.613C86.9177 172.917 86.8294 173.32 86.8907 173.823L86.9154 174.026C86.9767 174.53 87.1593 174.9 87.4632 175.138C87.7756 175.365 88.1882 175.447 88.7009 175.385ZM130.025 175.873C129.416 175.947 128.865 175.941 128.373 175.854C127.88 175.757 127.453 175.597 127.093 175.376C126.732 175.155 126.443 174.876 126.225 174.539C126.016 174.192 125.885 173.805 125.833 173.379C125.753 172.722 125.877 172.171 126.206 171.729C126.534 171.276 126.983 170.932 127.553 170.696L127.539 170.58C127.014 170.457 126.568 170.227 126.203 169.888C125.838 169.55 125.619 169.085 125.547 168.495C125.5 168.108 125.534 167.741 125.649 167.393C125.763 167.045 125.957 166.737 126.228 166.468C126.499 166.19 126.844 165.961 127.264 165.782C127.683 165.594 128.178 165.465 128.749 165.395C129.31 165.327 129.816 165.334 130.268 165.416C130.728 165.488 131.123 165.626 131.453 165.832C131.781 166.027 132.043 166.28 132.237 166.59C132.432 166.9 132.553 167.249 132.6 167.636C132.672 168.226 132.572 168.729 132.298 169.146C132.025 169.562 131.648 169.892 131.167 170.138L131.181 170.254C131.792 170.346 132.31 170.573 132.737 170.933C133.163 171.284 133.416 171.788 133.496 172.446C133.548 172.872 133.509 173.279 133.379 173.668C133.259 174.046 133.05 174.385 132.752 174.687C132.455 174.988 132.079 175.245 131.624 175.458C131.168 175.66 130.635 175.799 130.025 175.873ZM129.822 174.204C130.325 174.143 130.693 173.98 130.926 173.716C131.168 173.451 131.266 173.12 131.217 172.724L131.182 172.433C131.132 172.027 130.963 171.728 130.675 171.538C130.386 171.337 129.984 171.268 129.472 171.331C128.959 171.393 128.586 171.557 128.353 171.821C128.119 172.075 128.027 172.405 128.076 172.812L128.112 173.102C128.16 173.499 128.329 173.797 128.618 173.997C128.918 174.197 129.319 174.266 129.822 174.204ZM129.277 169.734C129.761 169.676 130.115 169.52 130.34 169.266C130.564 169.013 130.653 168.698 130.607 168.321L130.581 168.103C130.535 167.726 130.368 167.446 130.081 167.265C129.802 167.074 129.426 167.006 128.952 167.064C128.478 167.122 128.124 167.278 127.89 167.532C127.664 167.776 127.574 168.086 127.62 168.464L127.647 168.681C127.693 169.059 127.855 169.343 128.134 169.535C128.412 169.727 128.793 169.793 129.277 169.734ZM143.622 174.217C143.013 174.291 142.455 174.266 141.949 174.141C141.451 174.005 141.017 173.783 140.645 173.475C140.273 173.157 139.969 172.762 139.735 172.29C139.501 171.817 139.347 171.277 139.272 170.667C139.186 169.961 139.216 169.28 139.362 168.624C139.507 167.958 139.721 167.338 140.004 166.763C140.296 166.178 140.634 165.646 141.018 165.167C141.411 164.687 141.807 164.276 142.207 163.932L145.211 163.566C144.636 164.078 144.121 164.568 143.667 165.036C143.222 165.493 142.836 165.947 142.508 166.399C142.189 166.841 141.934 167.289 141.744 167.744C141.564 168.198 141.45 168.679 141.404 169.185L141.54 169.213C141.603 169.008 141.687 168.807 141.79 168.608C141.894 168.409 142.029 168.23 142.196 168.072C142.362 167.905 142.561 167.763 142.792 167.646C143.033 167.528 143.318 167.45 143.647 167.409C144.073 167.358 144.479 167.387 144.866 167.497C145.251 167.597 145.591 167.772 145.887 168.02C146.191 168.258 146.443 168.561 146.645 168.929C146.847 169.297 146.978 169.723 147.037 170.207C147.099 170.72 147.065 171.205 146.934 171.663C146.803 172.121 146.588 172.53 146.289 172.89C145.997 173.24 145.625 173.531 145.172 173.763C144.72 173.995 144.203 174.146 143.622 174.217ZM143.401 172.521C143.923 172.457 144.304 172.273 144.542 171.969C144.778 171.656 144.866 171.247 144.805 170.744L144.78 170.541C144.719 170.038 144.532 169.673 144.219 169.446C143.915 169.208 143.507 169.12 142.994 169.183C142.501 169.243 142.13 169.425 141.883 169.73C141.634 170.026 141.54 170.425 141.602 170.928L141.626 171.131C141.688 171.634 141.866 172.01 142.161 172.259C142.465 172.497 142.879 172.584 143.401 172.521ZM154.093 172.764L153.879 171.008L156.607 170.676L155.78 163.884L155.649 163.9L153.917 166.85L152.391 165.932L154.426 162.444L157.764 162.037L158.784 170.411L160.932 170.149L161.146 171.905L154.093 172.764ZM170.643 170.925C169.288 171.09 168.231 170.752 167.471 169.912C166.72 169.071 166.244 167.823 166.043 166.169C165.841 164.514 166.004 163.188 166.53 162.192C167.066 161.193 168.012 160.612 169.366 160.447C170.721 160.282 171.773 160.62 172.524 161.461C173.284 162.302 173.765 163.549 173.966 165.203C174.168 166.858 174.001 168.184 173.464 169.182C172.938 170.179 171.997 170.76 170.643 170.925ZM170.434 169.212C171.082 169.133 171.505 168.851 171.701 168.366C171.906 167.879 171.96 167.23 171.861 166.417L171.631 164.53C171.532 163.718 171.324 163.1 171.008 162.677C170.701 162.253 170.223 162.08 169.575 162.159C168.927 162.238 168.5 162.521 168.294 163.008C168.098 163.493 168.049 164.142 168.148 164.955L168.378 166.841C168.477 167.654 168.68 168.272 168.987 168.697C169.303 169.119 169.786 169.291 170.434 169.212ZM170.109 166.542C169.77 166.583 169.525 166.545 169.373 166.426C169.231 166.305 169.148 166.149 169.124 165.955L169.085 165.636C169.062 165.442 169.105 165.27 169.214 165.119C169.333 164.968 169.562 164.871 169.9 164.83C170.239 164.788 170.479 164.828 170.622 164.948C170.773 165.067 170.861 165.223 170.885 165.417L170.924 165.736C170.947 165.929 170.9 166.102 170.781 166.254C170.671 166.405 170.447 166.501 170.109 166.542ZM214.94 165.351L207.655 166.239L207.412 164.251L210.282 161.206C210.775 160.665 211.122 160.205 211.321 159.828C211.521 159.45 211.597 159.067 211.55 158.68L211.532 158.535C211.48 158.11 211.315 157.806 211.038 157.623C210.759 157.432 210.407 157.362 209.981 157.413C209.498 157.472 209.142 157.658 208.915 157.97C208.688 158.283 208.545 158.639 208.486 159.039L206.496 158.545C206.57 158.183 206.69 157.834 206.855 157.5C207.019 157.156 207.242 156.849 207.523 156.579C207.814 156.308 208.16 156.079 208.559 155.893C208.957 155.697 209.428 155.566 209.969 155.5C210.521 155.433 211.024 155.45 211.478 155.552C211.932 155.654 212.326 155.822 212.659 156.056C212.992 156.291 213.258 156.587 213.459 156.946C213.659 157.294 213.785 157.686 213.838 158.122C213.89 158.548 213.865 158.948 213.764 159.324C213.671 159.689 213.517 160.041 213.303 160.381C213.099 160.72 212.845 161.056 212.542 161.387C212.249 161.718 211.931 162.051 211.589 162.387L209.841 164.117L214.717 163.523L214.94 165.351ZM224.8 164.327C224.19 164.401 223.639 164.395 223.148 164.307C222.655 164.21 222.228 164.051 221.867 163.83C221.506 163.609 221.217 163.33 220.999 162.993C220.79 162.646 220.659 162.259 220.608 161.833C220.527 161.175 220.652 160.625 220.981 160.182C221.309 159.73 221.758 159.386 222.328 159.149L222.314 159.033C221.788 158.911 221.343 158.68 220.978 158.342C220.612 158.003 220.394 157.539 220.322 156.949C220.275 156.562 220.308 156.195 220.423 155.847C220.538 155.499 220.731 155.191 221.003 154.922C221.273 154.644 221.618 154.415 222.039 154.236C222.457 154.048 222.952 153.919 223.523 153.849C224.084 153.781 224.591 153.788 225.043 153.87C225.503 153.942 225.898 154.08 226.227 154.286C226.555 154.481 226.817 154.734 227.012 155.044C227.207 155.354 227.328 155.703 227.375 156.09C227.447 156.68 227.346 157.183 227.073 157.599C226.799 158.016 226.422 158.346 225.942 158.591L225.956 158.707C226.566 158.8 227.085 159.026 227.511 159.387C227.937 159.738 228.19 160.242 228.27 160.9C228.322 161.325 228.283 161.733 228.154 162.122C228.033 162.5 227.824 162.839 227.527 163.141C227.23 163.442 226.854 163.699 226.398 163.911C225.942 164.114 225.409 164.253 224.8 164.327ZM224.596 162.658C225.099 162.597 225.467 162.434 225.7 162.17C225.943 161.905 226.04 161.574 225.992 161.177L225.956 160.887C225.907 160.481 225.738 160.182 225.45 159.992C225.16 159.791 224.759 159.722 224.246 159.785C223.733 159.847 223.361 160.01 223.128 160.274C222.893 160.529 222.801 160.859 222.851 161.265L222.886 161.556C222.934 161.952 223.103 162.251 223.393 162.451C223.692 162.65 224.093 162.719 224.596 162.658ZM224.052 158.188C224.535 158.129 224.89 157.973 225.114 157.72C225.338 157.467 225.428 157.152 225.382 156.774L225.355 156.557C225.309 156.179 225.143 155.9 224.855 155.719C224.577 155.527 224.2 155.46 223.726 155.518C223.252 155.576 222.898 155.732 222.664 155.986C222.438 156.23 222.349 156.54 222.395 156.917L222.421 157.135C222.467 157.512 222.629 157.797 222.908 157.989C223.187 158.181 223.568 158.247 224.052 158.188ZM238.339 162.678C237.729 162.752 237.179 162.745 236.687 162.658C236.194 162.561 235.767 162.402 235.406 162.181C235.046 161.959 234.756 161.681 234.539 161.344C234.329 160.996 234.199 160.61 234.147 160.184C234.067 159.526 234.191 158.976 234.52 158.533C234.848 158.081 235.297 157.736 235.867 157.5L235.853 157.384C235.327 157.261 234.882 157.031 234.517 156.692C234.152 156.354 233.933 155.89 233.861 155.3C233.814 154.913 233.848 154.545 233.962 154.197C234.077 153.85 234.27 153.541 234.542 153.273C234.812 152.994 235.158 152.766 235.578 152.587C235.997 152.398 236.491 152.269 237.062 152.2C237.623 152.131 238.13 152.138 238.582 152.221C239.042 152.292 239.437 152.431 239.766 152.636C240.095 152.832 240.356 153.085 240.551 153.395C240.746 153.705 240.867 154.053 240.914 154.44C240.986 155.03 240.885 155.534 240.612 155.95C240.339 156.366 239.962 156.697 239.481 156.942L239.495 157.058C240.105 157.151 240.624 157.377 241.051 157.737C241.476 158.088 241.729 158.592 241.809 159.25C241.861 159.676 241.822 160.083 241.693 160.472C241.572 160.85 241.363 161.19 241.066 161.491C240.769 161.792 240.393 162.049 239.938 162.262C239.481 162.465 238.948 162.603 238.339 162.678ZM238.135 161.009C238.639 160.947 239.007 160.785 239.239 160.521C239.482 160.255 239.579 159.925 239.531 159.528L239.496 159.238C239.446 158.831 239.277 158.533 238.989 158.342C238.699 158.142 238.298 158.073 237.785 158.135C237.273 158.198 236.9 158.361 236.667 158.625C236.433 158.879 236.34 159.21 236.39 159.616L236.425 159.906C236.474 160.303 236.643 160.601 236.932 160.802C237.231 161.001 237.632 161.07 238.135 161.009ZM237.591 156.539C238.075 156.48 238.429 156.324 238.653 156.071C238.878 155.818 238.967 155.502 238.921 155.125L238.894 154.907C238.848 154.53 238.682 154.251 238.395 154.07C238.116 153.878 237.74 153.811 237.266 153.869C236.791 153.926 236.437 154.082 236.203 154.337C235.978 154.58 235.888 154.891 235.934 155.268L235.96 155.486C236.006 155.863 236.169 156.148 236.447 156.339C236.726 156.531 237.107 156.598 237.591 156.539ZM251.878 161.028C251.268 161.102 250.718 161.096 250.226 161.008C249.733 160.911 249.306 160.752 248.946 160.531C248.585 160.31 248.295 160.031 248.078 159.694C247.868 159.347 247.738 158.96 247.686 158.534C247.606 157.876 247.73 157.326 248.059 156.884C248.387 156.431 248.836 156.087 249.406 155.851L249.392 155.734C248.867 155.612 248.421 155.381 248.056 155.043C247.691 154.705 247.472 154.24 247.4 153.65C247.353 153.263 247.387 152.896 247.502 152.548C247.616 152.2 247.81 151.892 248.081 151.623C248.352 151.345 248.697 151.116 249.117 150.937C249.536 150.749 250.031 150.62 250.601 150.55C251.163 150.482 251.669 150.489 252.121 150.571C252.581 150.643 252.976 150.781 253.306 150.987C253.634 151.182 253.895 151.435 254.09 151.745C254.285 152.055 254.406 152.404 254.453 152.791C254.525 153.381 254.424 153.884 254.151 154.3C253.878 154.717 253.501 155.047 253.02 155.292L253.034 155.409C253.645 155.501 254.163 155.728 254.59 156.088C255.016 156.439 255.268 156.943 255.349 157.601C255.4 158.027 255.362 158.434 255.232 158.823C255.111 159.201 254.902 159.54 254.605 159.842C254.308 160.143 253.932 160.4 253.477 160.612C253.02 160.815 252.487 160.954 251.878 161.028ZM251.675 159.359C252.178 159.298 252.546 159.135 252.779 158.871C253.021 158.606 253.118 158.275 253.07 157.878L253.035 157.588C252.985 157.182 252.816 156.883 252.528 156.693C252.238 156.492 251.837 156.423 251.325 156.486C250.812 156.548 250.439 156.711 250.206 156.975C249.972 157.23 249.88 157.56 249.929 157.967L249.964 158.257C250.013 158.653 250.182 158.952 250.471 159.152C250.77 159.352 251.172 159.42 251.675 159.359ZM251.13 154.889C251.614 154.83 251.968 154.674 252.192 154.421C252.417 154.168 252.506 153.853 252.46 153.476L252.434 153.258C252.388 152.881 252.221 152.601 251.934 152.42C251.655 152.228 251.279 152.161 250.805 152.219C250.331 152.277 249.977 152.433 249.743 152.687C249.517 152.931 249.427 153.241 249.473 153.618L249.5 153.836C249.546 154.214 249.708 154.498 249.986 154.69C250.265 154.882 250.646 154.948 251.13 154.889ZM292.496 156.08C291.886 156.154 291.335 156.147 290.844 156.06C290.351 155.963 289.924 155.804 289.563 155.583C289.202 155.362 288.913 155.083 288.695 154.746C288.486 154.398 288.356 154.012 288.304 153.586C288.223 152.928 288.348 152.378 288.677 151.935C289.005 151.483 289.454 151.139 290.024 150.902L290.01 150.786C289.484 150.664 289.039 150.433 288.674 150.095C288.308 149.756 288.09 149.292 288.018 148.702C287.971 148.315 288.005 147.947 288.119 147.6C288.234 147.252 288.427 146.943 288.699 146.675C288.969 146.396 289.314 146.168 289.735 145.989C290.153 145.8 290.648 145.671 291.219 145.602C291.78 145.533 292.287 145.54 292.739 145.623C293.199 145.694 293.594 145.833 293.923 146.038C294.251 146.234 294.513 146.487 294.708 146.797C294.903 147.107 295.024 147.455 295.071 147.842C295.143 148.433 295.042 148.936 294.769 149.352C294.495 149.768 294.118 150.099 293.638 150.344L293.652 150.46C294.262 150.553 294.781 150.779 295.207 151.14C295.633 151.49 295.886 151.995 295.966 152.652C296.018 153.078 295.979 153.485 295.85 153.874C295.729 154.252 295.52 154.592 295.223 154.893C294.926 155.195 294.55 155.452 294.094 155.664C293.638 155.867 293.105 156.006 292.496 156.08ZM292.292 154.411C292.795 154.35 293.163 154.187 293.396 153.923C293.639 153.658 293.736 153.327 293.688 152.93L293.652 152.64C293.603 152.233 293.434 151.935 293.146 151.744C292.856 151.544 292.455 151.475 291.942 151.537C291.429 151.6 291.057 151.763 290.824 152.027C290.59 152.281 290.497 152.612 290.547 153.018L290.582 153.308C290.63 153.705 290.799 154.004 291.089 154.204C291.388 154.403 291.789 154.472 292.292 154.411ZM291.748 149.941C292.231 149.882 292.586 149.726 292.81 149.473C293.034 149.22 293.124 148.904 293.078 148.527L293.051 148.309C293.005 147.932 292.839 147.653 292.551 147.472C292.273 147.28 291.896 147.213 291.422 147.271C290.948 147.329 290.594 147.485 290.36 147.739C290.135 147.982 290.045 148.293 290.091 148.67L290.117 148.888C290.163 149.265 290.325 149.55 290.604 149.742C290.883 149.933 291.264 150 291.748 149.941ZM306.035 154.43C304.68 154.595 303.623 154.258 302.863 153.418C302.112 152.576 301.636 151.328 301.435 149.674C301.233 148.02 301.396 146.694 301.922 145.697C302.458 144.699 303.404 144.117 304.758 143.952C306.113 143.787 307.165 144.126 307.916 144.967C308.676 145.807 309.157 147.054 309.358 148.709C309.56 150.363 309.393 151.689 308.856 152.687C308.33 153.684 307.389 154.265 306.035 154.43ZM305.826 152.718C306.474 152.639 306.897 152.357 307.093 151.871C307.299 151.385 307.352 150.735 307.253 149.922L307.023 148.036C306.924 147.223 306.716 146.605 306.4 146.182C306.093 145.758 305.615 145.586 304.967 145.665C304.319 145.744 303.892 146.027 303.686 146.513C303.49 146.998 303.441 147.648 303.54 148.46L303.77 150.347C303.869 151.16 304.072 151.778 304.379 152.202C304.696 152.625 305.178 152.797 305.826 152.718ZM305.501 150.048C305.162 150.089 304.917 150.05 304.765 149.931C304.623 149.811 304.54 149.654 304.516 149.461L304.477 149.141C304.454 148.948 304.497 148.776 304.606 148.625C304.725 148.473 304.954 148.376 305.292 148.335C305.631 148.294 305.871 148.333 306.014 148.453C306.166 148.572 306.253 148.729 306.277 148.922L306.316 149.241C306.339 149.435 306.292 149.608 306.173 149.76C306.063 149.91 305.839 150.006 305.501 150.048ZM317.579 152.847L320.044 144.064L316.764 144.463L316.988 146.306L315.145 146.531L314.705 142.917L321.99 142.03L322.22 143.916L319.872 152.568L317.579 152.847ZM335.355 142.331L330.667 142.902L330.826 146.138L330.956 146.122C331.035 145.876 331.13 145.649 331.241 145.439C331.352 145.219 331.491 145.03 331.658 144.873C331.825 144.705 332.024 144.568 332.256 144.461C332.489 144.354 332.76 144.282 333.069 144.244C333.485 144.193 333.886 144.218 334.271 144.319C334.666 144.418 335.021 144.591 335.336 144.837C335.659 145.072 335.928 145.383 336.142 145.77C336.355 146.146 336.492 146.586 336.553 147.089C336.616 147.602 336.586 148.087 336.465 148.543C336.344 149 336.134 149.408 335.834 149.769C335.544 150.128 335.163 150.43 334.692 150.674C334.22 150.908 333.67 151.064 333.041 151.14C332.547 151.2 332.101 151.201 331.701 151.141C331.301 151.082 330.94 150.984 330.619 150.846C330.306 150.698 330.025 150.521 329.774 150.316C329.531 150.1 329.318 149.876 329.132 149.643L330.562 148.202C330.702 148.381 330.845 148.551 330.992 148.709C331.149 148.867 331.317 149.004 331.498 149.119C331.688 149.224 331.889 149.302 332.101 149.355C332.323 149.397 332.569 149.401 332.839 149.368C333.381 149.302 333.77 149.107 334.005 148.784C334.249 148.45 334.341 148.036 334.281 147.543L334.267 147.427C334.209 146.953 334.024 146.597 333.71 146.361C333.397 146.124 332.993 146.035 332.5 146.096C332.093 146.145 331.765 146.269 331.514 146.466C331.272 146.653 331.092 146.832 330.975 147.003L329.16 146.974L328.839 141.195L335.123 140.43L335.355 142.331Z" fill="white"/>
<ellipse cx="324.709" cy="186.573" rx="11.8023" ry="11.5739" transform="rotate(-6.946 324.709 186.573)" fill="white" fill-opacity="0.67"/>
<ellipse cx="338.768" cy="184.86" rx="11.8023" ry="11.5739" transform="rotate(-6.946 338.768 184.86)" fill="white" fill-opacity="0.7"/>
<rect x="35.9886" y="118.308" width="27.4873" height="20.8156" rx="4.003" transform="rotate(-6.946 35.9886 118.308)" fill="url(#paint0_linear_315_10629)" stroke="#666666" stroke-width="0.533734"/>
<path fill-rule="evenodd" clip-rule="evenodd" d="M54.0769 120.557C52.895 118.774 51.2201 117.465 50.1668 117.002C50.0972 116.973 50.0423 116.917 50.0141 116.846C49.9859 116.776 49.9867 116.698 50.0164 116.628C50.046 116.559 50.1021 116.504 50.1723 116.476C50.2424 116.448 50.3209 116.448 50.3904 116.478C51.7692 117.076 53.4762 118.625 54.5424 120.231C54.5671 120.261 54.5848 120.297 54.5943 120.335C54.6038 120.372 54.605 120.412 54.5976 120.45C54.5902 120.488 54.5745 120.525 54.5516 120.556C54.5287 120.588 54.4992 120.614 54.4651 120.633C54.4294 120.658 54.3879 120.674 54.3445 120.68C54.2929 120.686 54.2405 120.678 54.1932 120.656C54.1459 120.635 54.1057 120.6 54.0769 120.557ZM46.5777 130.69C46.9169 133.32 49.7748 136.156 51.6036 136.962C51.6386 136.975 51.6704 136.996 51.697 137.022C51.7236 137.048 51.7444 137.08 51.758 137.115C51.7717 137.149 51.7778 137.187 51.7761 137.224C51.7743 137.261 51.7648 137.298 51.748 137.331C51.7281 137.376 51.697 137.415 51.6578 137.444C51.6185 137.474 51.5724 137.492 51.5238 137.499C51.4743 137.505 51.424 137.497 51.3786 137.476C49.4289 136.625 46.5581 133.793 46.0573 131.006L37.6743 132.027C37.604 132.029 37.5357 132.004 37.4826 131.959C37.4294 131.913 37.3953 131.849 37.3868 131.779C37.3783 131.709 37.396 131.639 37.4366 131.581C37.4772 131.524 37.5376 131.484 37.6062 131.469L46.0421 130.441C46.3449 128.525 46.1058 126.562 45.3518 124.775L36.9159 125.802C36.8421 125.811 36.7679 125.791 36.7094 125.745C36.6509 125.699 36.613 125.632 36.604 125.558C36.595 125.484 36.6157 125.41 36.6615 125.352C36.7072 125.293 36.7744 125.255 36.8481 125.246L45.2311 124.225C45.0468 121.388 47.1657 117.959 48.8435 116.667C48.9039 116.621 48.9799 116.602 49.0547 116.612C49.1296 116.623 49.1972 116.662 49.2427 116.723C49.2881 116.783 49.3078 116.859 49.2972 116.934C49.2867 117.009 49.2469 117.077 49.1865 117.122C47.6032 118.331 45.5101 121.773 45.8125 124.409C46.6687 126.385 46.9344 128.567 46.5777 130.69ZM64.8657 128.148L56.4138 129.177C55.6599 127.39 55.4208 125.427 55.7235 123.511L64.1753 122.481C64.2491 122.472 64.3162 122.435 64.362 122.376C64.4078 122.318 64.4285 122.243 64.4195 122.17C64.4105 122.096 64.3726 122.029 64.3141 121.983C64.2556 121.937 64.1813 121.916 64.1076 121.925L55.4413 122.981C55.3811 122.989 55.3251 123.017 55.2819 123.059C55.2386 123.102 55.2103 123.157 55.2013 123.217C54.8373 125.357 55.1052 127.556 55.9723 129.546C56.2744 132.18 54.181 135.619 52.5993 136.841C52.5675 136.861 52.5404 136.888 52.5197 136.92C52.499 136.951 52.4853 136.987 52.4795 137.024C52.4736 137.062 52.4757 137.1 52.4856 137.136C52.4956 137.172 52.5132 137.206 52.5372 137.235C52.5673 137.274 52.6068 137.304 52.6519 137.323C52.697 137.342 52.7463 137.349 52.7949 137.344C52.8445 137.338 52.8915 137.318 52.9304 137.287C54.6098 136.008 56.7258 132.555 56.5428 129.729L64.9337 128.706C65.0023 128.691 65.0628 128.651 65.1033 128.594C65.1439 128.536 65.1616 128.466 65.1531 128.396C65.1446 128.327 65.1105 128.262 65.0574 128.217C65.0042 128.171 64.9359 128.146 64.8657 128.148ZM49.525 118.123C49.6002 118.059 49.6929 118.018 49.7913 118.006C49.9234 117.99 50.0564 118.027 50.1611 118.109C50.2658 118.191 50.3337 118.311 50.3498 118.443C50.3618 118.541 50.3443 118.641 50.2996 118.73C50.2548 118.818 50.1849 118.891 50.0985 118.94C50.0121 118.989 49.9132 119.011 49.8143 119.003C49.7154 118.996 49.621 118.959 49.5429 118.898C49.4648 118.837 49.4066 118.754 49.3756 118.66C49.3446 118.566 49.3423 118.464 49.3689 118.369C49.3955 118.273 49.4498 118.188 49.525 118.123Z" fill="#666666"/>
<path d="M37.7575 77.1308C37.6645 77.2187 37.5551 77.2874 37.4355 77.3331C37.3159 77.3787 37.1886 77.4004 37.0606 77.3968C36.8023 77.3895 36.5574 77.28 36.3798 77.0922C36.2022 76.9044 36.1065 76.6537 36.1138 76.3953C36.121 76.137 36.2306 75.8921 36.4184 75.7145C36.8546 75.2986 37.3537 74.9542 37.8975 74.6942C38.4615 74.424 39.0661 74.2482 39.6871 74.1737C40.3063 74.0976 40.9337 74.1233 41.5446 74.2499C42.1348 74.3718 42.7021 74.5862 43.2254 74.8852C43.4503 75.0125 43.6155 75.2239 43.6846 75.473C43.7536 75.7221 43.7209 75.9884 43.5936 76.2133C43.4663 76.4383 43.2549 76.6034 43.0058 76.6725C42.7568 76.7415 42.4905 76.7088 42.2655 76.5815C41.9224 76.3836 41.5502 76.241 41.1627 76.159C40.7551 76.0713 40.3358 76.051 39.9216 76.099C39.5099 76.1475 39.1089 76.2628 38.7343 76.4405C38.374 76.6171 38.0443 76.8501 37.7575 77.1308V77.1308ZM35.5518 74.0391C36.6796 73.1375 38.0372 72.5697 39.471 72.3998C40.9009 72.2191 42.3528 72.4413 43.6632 73.0413C43.7794 73.0949 43.9051 73.1251 44.033 73.1301C44.1609 73.1352 44.2885 73.115 44.4086 73.0707C44.5287 73.0264 44.6389 72.9589 44.7329 72.8721C44.8269 72.7852 44.9029 72.6807 44.9565 72.5645C45.0101 72.4482 45.0403 72.3226 45.0454 72.1947C45.0504 72.0668 45.0302 71.9392 44.9859 71.8191C44.9417 71.699 44.8742 71.5888 44.7873 71.4948C44.7005 71.4008 44.5959 71.3248 44.4797 71.2712C42.8411 70.5189 41.0243 70.2413 39.2359 70.4698C37.4432 70.677 35.7445 71.3829 34.333 72.5073C34.2331 72.5873 34.1499 72.6861 34.0881 72.7982C34.0264 72.9103 33.9873 73.0335 33.9731 73.1607C33.959 73.2879 33.9701 73.4167 34.0057 73.5396C34.0413 73.6626 34.1008 73.7773 34.1807 73.8772C34.2606 73.9772 34.3595 74.0604 34.4716 74.1222C34.5837 74.1839 34.7069 74.223 34.8341 74.2371C34.9613 74.2513 35.0901 74.2402 35.213 74.2046C35.3359 74.169 35.4507 74.1095 35.5506 74.0296L35.5518 74.0391ZM33.3012 70.7368C34.9639 69.4735 36.9328 68.6753 39.0058 68.424C41.077 68.171 43.1782 68.4734 45.0941 69.3001C45.2115 69.351 45.3379 69.3783 45.4659 69.3804C45.594 69.3825 45.7211 69.3594 45.8402 69.3124C45.9593 69.2653 46.068 69.1953 46.16 69.1062C46.252 69.0172 46.3256 68.9109 46.3765 68.7934C46.4274 68.6759 46.4547 68.5496 46.4569 68.4216C46.459 68.2935 46.4358 68.1663 46.3888 68.0473C46.3417 67.9282 46.2717 67.8195 46.1826 67.7275C46.0936 67.6355 45.9873 67.5619 45.8698 67.511C43.6384 66.5435 41.1887 66.1905 38.7748 66.4887C36.3507 66.7759 34.0474 67.7062 32.1039 69.1833C31.8978 69.342 31.7633 69.5762 31.73 69.8341C31.6966 70.0921 31.767 70.3527 31.9258 70.5587C32.0846 70.7647 32.3187 70.8992 32.5766 70.9326C32.8346 70.966 33.0952 70.8956 33.3012 70.7368V70.7368ZM31.0288 67.4516C33.224 65.8198 35.8076 64.7901 38.5235 64.4647C41.2365 64.1294 43.9901 64.5088 46.5113 65.5654C46.6291 65.6141 46.7554 65.6391 46.8829 65.639C47.0104 65.6389 47.1366 65.6136 47.2544 65.5648C47.3721 65.5159 47.4791 65.4443 47.5692 65.354C47.6592 65.2638 47.7306 65.1567 47.7793 65.0389C47.828 64.921 47.853 64.7948 47.8529 64.6673C47.8528 64.5398 47.8276 64.4136 47.7787 64.2958C47.7298 64.1781 47.6582 64.0711 47.568 63.981C47.4777 63.891 47.3706 63.8195 47.2528 63.7709C44.4184 62.5841 41.3235 62.157 38.2736 62.5317C35.2144 62.8973 32.304 64.0561 29.8308 65.8933C29.6234 66.0459 29.4851 66.2747 29.4464 66.5292C29.4076 66.7838 29.4716 67.0433 29.6241 67.2507C29.7767 67.4581 30.0055 67.5964 30.26 67.6351C30.5146 67.6739 30.7741 67.61 30.9815 67.4574" fill="white"/>
</g>
<defs>
<linearGradient id="paint0_linear_315_10629" x1="33.0227" y1="118.076" x2="65.9808" y2="139.425" gradientUnits="userSpaceOnUse">
<stop stop-color="#DDD9D6"/>
<stop offset="0.212761" stop-color="#8A868C"/>
<stop offset="0.548384" stop-color="#F2F3F3" stop-opacity="0.8"/>
<stop offset="0.914316" stop-color="#807C80"/>
<stop offset="1" stop-color="#A6A8AB"/>
</linearGradient>
<clipPath id="clip0_315_10629">
<rect x="0.71875" y="42.5615" width="345.999" height="222.95" rx="16.3788" transform="rotate(-6.946 0.71875 42.5615)" fill="white"/>
</clipPath>
</defs>
</svg>
