<svg width="60" height="60" viewBox="0 0 60 60" fill="none" xmlns="http://www.w3.org/2000/svg">
<rect width="59.9537" height="60" rx="29.9769" fill="#DAF070"/>
<path d="M29.9767 15C27.0123 15 24.1144 15.8797 21.6496 17.528C19.1848 19.1762 17.2637 21.5189 16.1292 24.2597C14.9948 27.0006 14.698 30.0166 15.2763 32.9263C15.8546 35.8361 17.2821 38.5088 19.3783 40.6066C21.4745 42.7044 24.1452 44.133 27.0526 44.7118C29.9601 45.2905 32.9738 44.9935 35.7125 43.8582C38.4513 42.7229 40.7922 40.8003 42.4391 38.3335C44.0861 35.8668 44.9652 32.9667 44.9652 30C44.9652 26.0217 43.386 22.2064 40.5751 19.3934C37.7643 16.5804 33.9519 15 29.9767 15ZM39.7727 38.2929L39.0661 37.575C38.8645 37.3732 38.5911 37.2599 38.306 37.2599C38.0209 37.2599 37.7475 37.3732 37.5459 37.575C37.3443 37.7767 37.231 38.0504 37.231 38.3357C37.231 38.621 37.3443 38.8947 37.5459 39.0964L38.2632 39.8036C36.2381 41.5547 33.7134 42.623 31.0473 42.8571V41.7857C31.0473 41.5015 30.9345 41.229 30.7338 41.0281C30.533 40.8272 30.2607 40.7143 29.9767 40.7143C29.6928 40.7143 29.4205 40.8272 29.2197 41.0281C29.0189 41.229 28.9061 41.5015 28.9061 41.7857V42.8571C26.2462 42.6382 23.7222 41.5888 21.6903 39.8571L22.4076 39.15C22.6092 38.9482 22.7224 38.6746 22.7224 38.3893C22.7224 38.104 22.6092 37.8303 22.4076 37.6286C22.206 37.4268 21.9325 37.3135 21.6474 37.3135C21.3623 37.3135 21.0889 37.4268 20.8873 37.6286L20.1807 38.3464C18.44 36.2984 17.3908 33.7521 17.183 31.0714H18.2001C18.484 31.0714 18.7563 30.9585 18.9571 30.7576C19.1579 30.5567 19.2707 30.2842 19.2707 30C19.2707 29.7158 19.1579 29.4433 18.9571 29.2424C18.7563 29.0415 18.484 28.9286 18.2001 28.9286H17.1295C17.3482 26.2666 18.3968 23.7406 20.1272 21.7071L20.8338 22.425C20.9338 22.5243 21.0525 22.6029 21.1829 22.6562C21.3133 22.7095 21.453 22.7365 21.5939 22.7357C21.7348 22.7365 21.8745 22.7095 22.0049 22.6562C22.1354 22.6029 22.254 22.5243 22.354 22.425C22.4544 22.3254 22.534 22.2069 22.5884 22.0763C22.6427 21.9458 22.6707 21.8057 22.6707 21.6643C22.6707 21.5228 22.6427 21.3828 22.5884 21.2522C22.534 21.1217 22.4544 21.0032 22.354 20.9036L21.6367 20.1964C23.6832 18.4544 26.2275 17.4043 28.9061 17.1964V18.2143C28.9061 18.4984 29.0189 18.771 29.2197 18.9719C29.4205 19.1728 29.6928 19.2857 29.9767 19.2857C30.2607 19.2857 30.533 19.1728 30.7338 18.9719C30.9345 18.771 31.0473 18.4984 31.0473 18.2143V17.1429C33.7072 17.3618 36.2313 18.4111 38.2632 20.1429L37.5459 20.85C37.4455 20.9496 37.3659 21.0681 37.3115 21.1987C37.2572 21.3292 37.2292 21.4693 37.2292 21.6107C37.2292 21.7522 37.2572 21.8922 37.3115 22.0228C37.3659 22.1533 37.4455 22.2718 37.5459 22.3714C37.6459 22.4707 37.7646 22.5493 37.895 22.6026C38.0254 22.6559 38.1651 22.683 38.306 22.6821C38.4469 22.683 38.5866 22.6559 38.717 22.6026C38.8475 22.5493 38.9661 22.4707 39.0661 22.3714L39.7727 21.6536C41.5328 23.6947 42.601 26.2417 42.8239 28.9286H41.7533C41.4694 28.9286 41.1971 29.0415 40.9963 29.2424C40.7955 29.4433 40.6827 29.7158 40.6827 30C40.6827 30.2842 40.7955 30.5567 40.9963 30.7576C41.1971 30.9585 41.4694 31.0714 41.7533 31.0714H42.8239C42.59 33.7395 41.5225 36.2662 39.7727 38.2929Z" fill="#12141D"/>
<path d="M34.741 31.1893L31.0475 29.3357V23.5714C31.0475 23.2873 30.9347 23.0147 30.7339 22.8138C30.5331 22.6129 30.2608 22.5 29.9769 22.5C29.6929 22.5 29.4206 22.6129 29.2198 22.8138C29.019 23.0147 28.9062 23.2873 28.9062 23.5714V30C28.9068 30.1979 28.9622 30.3917 29.0661 30.56C29.17 30.7283 29.3185 30.8645 29.4951 30.9536L33.7775 33.0964C33.9256 33.1758 34.0913 33.2163 34.2593 33.2143C34.457 33.2137 34.6506 33.1583 34.8188 33.0543C34.987 32.9503 35.1231 32.8017 35.2121 32.625C35.3391 32.372 35.3608 32.0789 35.2725 31.8099C35.1843 31.5409 34.9932 31.3177 34.741 31.1893Z" fill="#12141D"/>
</svg>
