<svg width="60" height="60" viewBox="0 0 60 60" fill="none" xmlns="http://www.w3.org/2000/svg">
<rect width="59.9537" height="60" rx="29.9769" fill="#12141D"/>
<path d="M38.4437 33.3781C40.1831 33.3781 41.8513 32.6872 43.0813 31.4572C44.3112 30.2272 45.0022 28.5591 45.0022 26.8196C45.0022 25.0802 44.3112 23.412 43.0813 22.1821C41.8513 20.9521 40.1831 20.2611 38.4437 20.2611C38.3126 20.2611 38.1767 20.2611 38.0455 20.2611C37.3636 18.6975 36.2402 17.3668 34.8131 16.4323C33.386 15.4978 31.7172 15 30.0114 15C28.3055 15 26.6367 15.4978 25.2096 16.4323C23.7825 17.3668 22.6591 18.6975 21.9772 20.2611C21.846 20.2611 21.7102 20.2611 21.579 20.2611C19.8396 20.2611 18.1714 20.9521 16.9414 22.1821C15.7115 23.412 15.0205 25.0802 15.0205 26.8196C15.0205 28.5591 15.7115 30.2272 16.9414 31.4572C18.1714 32.6872 19.8396 33.3781 21.579 33.3781H23.9213V37.5006H21.9772C21.8099 36.665 21.3454 35.9183 20.6698 35.399C19.9941 34.8796 19.1531 34.6228 18.3025 34.6761C17.452 34.7294 16.6496 35.0892 16.044 35.6889C15.4385 36.2885 15.0709 37.0873 15.0092 37.9373C14.9476 38.7873 15.1962 39.6308 15.7089 40.3115C16.2216 40.9922 16.9637 41.464 17.7977 41.6394C18.6316 41.8149 19.5009 41.6821 20.2444 41.2656C20.9879 40.8491 21.5553 40.1773 21.8413 39.3745H24.8583C25.1067 39.3745 25.3451 39.2758 25.5208 39.1001C25.6965 38.9244 25.7952 38.686 25.7952 38.4376V33.3781H29.0744V38.1003C28.2553 38.3269 27.546 38.8428 27.0782 39.5524C26.6103 40.262 26.4155 41.1171 26.5298 41.9593C26.6442 42.8015 27.06 43.5737 27.7001 44.1328C28.3403 44.6919 29.1614 45 30.0114 45C30.8613 45 31.6824 44.6919 32.3226 44.1328C32.9627 43.5737 33.3785 42.8015 33.4929 41.9593C33.6073 41.1171 33.4124 40.262 32.9446 39.5524C32.4767 38.8428 31.7675 38.3269 30.9483 38.1003V33.3781H34.2275V38.4376C34.2275 38.686 34.3263 38.9244 34.502 39.1001C34.6777 39.2758 34.916 39.3745 35.1645 39.3745H38.1954C38.481 40.1721 39.0459 40.8393 39.7855 41.2525C40.5251 41.6658 41.3894 41.797 42.2184 41.622C43.0473 41.447 43.7848 40.9775 44.2943 40.3006C44.8038 39.6237 45.0507 38.7851 44.9895 37.9401C44.9282 37.0951 44.5629 36.3008 43.9611 35.7045C43.3593 35.1081 42.5618 34.75 41.7163 34.6964C40.8707 34.6427 40.0344 34.8973 39.3621 35.4129C38.6898 35.9284 38.2271 36.6701 38.0596 37.5006H36.1014V33.3781H38.4437ZM18.534 39.843C18.2097 39.843 17.8927 39.7468 17.6231 39.5666C17.3534 39.3865 17.1433 39.1304 17.0192 38.8308C16.8951 38.5312 16.8626 38.2015 16.9259 37.8834C16.9891 37.5654 17.1453 37.2732 17.3746 37.0439C17.6039 36.8146 17.896 36.6585 18.2141 36.5952C18.5322 36.5319 18.8618 36.5644 19.1614 36.6885C19.461 36.8126 19.7171 37.0228 19.8973 37.2924C20.0774 37.562 20.1736 37.879 20.1736 38.2033C20.1736 38.6382 20.0009 39.0552 19.6934 39.3627C19.3859 39.6702 18.9688 39.843 18.534 39.843ZM41.4887 36.5637C41.813 36.5637 42.13 36.6599 42.3997 36.84C42.6693 37.0202 42.8795 37.2763 43.0036 37.5759C43.1277 37.8755 43.1601 38.2051 43.0969 38.5232C43.0336 38.8413 42.8774 39.1334 42.6481 39.3627C42.4188 39.592 42.1267 39.7482 41.8086 39.8114C41.4906 39.8747 41.1609 39.8422 40.8613 39.7181C40.5617 39.594 40.3056 39.3839 40.1254 39.1143C39.9453 38.8446 39.8491 38.5276 39.8491 38.2033C39.8491 37.7685 40.0219 37.3514 40.3294 37.0439C40.6368 36.7364 41.0539 36.5637 41.4887 36.5637ZM31.651 41.4826C31.651 41.8069 31.5548 42.1239 31.3747 42.3935C31.1945 42.6631 30.9384 42.8733 30.6388 42.9974C30.3392 43.1215 30.0095 43.154 29.6915 43.0907C29.3734 43.0274 29.0813 42.8713 28.852 42.642C28.6227 42.4127 28.4665 42.1205 28.4032 41.8025C28.34 41.4844 28.3724 41.1547 28.4965 40.8551C28.6206 40.5555 28.8308 40.2994 29.1004 40.1193C29.3701 39.9391 29.6871 39.843 30.0114 39.843C30.4462 39.843 30.8633 40.0157 31.1707 40.3232C31.4782 40.6307 31.651 41.0477 31.651 41.4826ZM21.579 31.5043C20.3366 31.5043 19.145 31.0107 18.2665 30.1322C17.3879 29.2536 16.8944 28.0621 16.8944 26.8196C16.8944 25.5772 17.3879 24.3856 18.2665 23.5071C19.145 22.6286 20.3366 22.135 21.579 22.135C21.8604 22.1357 22.1411 22.1624 22.4176 22.2146C22.6426 22.256 22.875 22.2135 23.0709 22.0953C23.2668 21.977 23.4127 21.7912 23.481 21.5728C23.9392 20.2036 24.8163 19.013 25.9882 18.1694C27.1601 17.3259 28.5674 16.872 30.0114 16.872C31.4553 16.872 32.8627 17.3259 34.0345 18.1694C35.2064 19.013 36.0835 20.2036 36.5418 21.5728C36.6128 21.7886 36.7598 21.9712 36.9554 22.0867C37.151 22.2022 37.3819 22.2426 37.6052 22.2006C37.8821 22.153 38.1628 22.1311 38.4437 22.135C39.6862 22.135 40.8777 22.6286 41.7563 23.5071C42.6348 24.3856 43.1284 25.5772 43.1284 26.8196C43.1284 28.0621 42.6348 29.2536 41.7563 30.1322C40.8777 31.0107 39.6862 31.5043 38.4437 31.5043H21.579Z" fill="#DAF070"/>
</svg>
