<svg width="61" height="60" viewBox="0 0 61 60" fill="none" xmlns="http://www.w3.org/2000/svg">
<rect x="0.625" width="59.9537" height="60" rx="29.9769" fill="#DAF070"/>
<path d="M30.3154 15C26.1401 15 22.8212 18.3214 22.8212 22.5V23.5714C21.0012 23.5714 19.6094 24.9643 19.6094 26.7857V34.2857C19.6094 40.1786 24.4271 45 30.3154 45C36.2037 45 41.0214 40.1786 41.0214 34.2857V26.7857C41.0214 24.9643 39.6296 23.5714 37.8096 23.5714V22.5C37.8096 18.3214 34.4908 15 30.3154 15ZM38.8802 26.7857V34.2857C38.8802 39 35.0261 42.8571 30.3154 42.8571C25.6047 42.8571 21.7506 39 21.7506 34.2857V26.7857C21.7506 26.1429 22.1788 25.7143 22.8212 25.7143H23.8918H36.739H37.8096C38.452 25.7143 38.8802 26.1429 38.8802 26.7857ZM24.9624 23.5714V22.5C24.9624 19.5 27.3177 17.1429 30.3154 17.1429C33.3131 17.1429 35.6684 19.5 35.6684 22.5V23.5714H24.9624Z" fill="#12141D"/>
<path d="M29.4609 31.8217H32.9939C33.6363 31.8217 34.0645 31.3931 34.0645 30.7503C34.0645 30.1074 33.6363 29.6789 32.9939 29.6789H31.388V28.9289C31.388 28.286 30.9598 27.8574 30.3174 27.8574C29.6751 27.8574 29.2468 28.286 29.2468 28.9289V29.6789C27.748 29.786 26.5703 30.9646 26.5703 32.4646C26.5703 34.0717 27.855 35.3574 29.4609 35.3574H31.281C31.7092 35.3574 32.0304 35.6789 32.0304 36.1074C32.0304 36.536 31.7092 36.8574 31.281 36.8574H27.748C27.1056 36.8574 26.6774 37.286 26.6774 37.9289C26.6774 38.5717 27.1056 39.0003 27.748 39.0003H29.2468V39.6431C29.2468 40.286 29.6751 40.7146 30.3174 40.7146C30.9598 40.7146 31.388 40.286 31.388 39.6431V38.8931C32.8869 38.786 34.0645 37.6074 34.0645 36.1074C34.0645 34.5003 32.7798 33.2146 31.1739 33.2146H29.3539C28.9256 33.2146 28.6045 32.8931 28.6045 32.4646C28.7115 32.1431 29.0327 31.8217 29.4609 31.8217Z" fill="#12141D"/>
</svg>
