<svg width="60" height="60" viewBox="0 0 60 60" fill="none" xmlns="http://www.w3.org/2000/svg">
<rect width="59.9537" height="60" rx="29.9769" fill="#12141D"/>
<path fill-rule="evenodd" clip-rule="evenodd" d="M44.287 27.4518C43.7632 27.4538 43.2527 27.6179 42.826 27.9217C42.3992 28.2256 42.077 28.6541 41.9037 29.1485H36.8242C36.7958 29.1471 36.7673 29.15 36.7397 29.1569L34.069 24.5174C34.0912 24.4939 34.111 24.4683 34.1281 24.4409L36.689 20.0389C36.8445 20.0729 37.0032 20.0899 37.1623 20.0896C37.7202 20.087 38.2617 19.9012 38.7037 19.5609C39.1457 19.2205 39.4637 18.7443 39.6087 18.2056C39.7537 17.6669 39.7177 17.0955 39.5063 16.5792C39.2948 16.063 38.9197 15.6305 38.4385 15.3482C38.0518 15.1204 37.6111 15.0004 37.1623 15.0009C36.7188 15.0016 36.2832 15.1187 35.8991 15.3404C35.515 15.5621 35.1958 15.8807 34.9733 16.2644C34.7102 16.7192 34.5934 17.244 34.6388 17.7675C34.6842 18.291 34.8895 18.7879 35.2269 19.1908L32.666 23.5928C32.6491 23.6112 32.64 23.6354 32.6407 23.6604H27.1978C27.1931 23.6366 27.1845 23.6138 27.1724 23.5928L24.62 19.1908C24.8606 18.8972 25.0363 18.556 25.1356 18.1897C25.2345 17.8134 25.2458 17.4194 25.1685 17.0381C25.0913 16.6568 24.9275 16.2983 24.69 15.9902C24.4524 15.6821 24.1473 15.4326 23.7982 15.261C23.4491 15.0893 23.0652 15 22.6762 15C22.2273 14.9996 21.7866 15.1195 21.4 15.3474C20.9178 15.6298 20.542 16.063 20.3305 16.5802C20.1191 17.0974 20.0836 17.6698 20.2298 18.2091C20.3759 18.7485 20.6954 19.2247 21.1391 19.5644C21.5827 19.9041 22.1258 20.0883 22.6846 20.0887C22.8409 20.089 22.9968 20.072 23.1494 20.038L25.7103 24.4401C25.7254 24.4735 25.7487 24.5025 25.7779 24.5246L23.1072 29.1565C23.0768 29.1491 23.0455 29.1463 23.0142 29.1481H17.9432C17.7432 28.5822 17.3495 28.1053 16.8318 27.8016C16.3141 27.4979 15.7057 27.387 15.1141 27.4885C14.5226 27.59 13.9859 27.8973 13.599 28.3562C13.2122 28.8151 13 29.396 13 29.9962C13 30.5964 13.2122 31.1773 13.599 31.6362C13.9859 32.0951 14.5226 32.4024 15.1141 32.5039C15.7057 32.6054 16.3141 32.4945 16.8318 32.1908C17.3495 31.8871 17.7432 31.4102 17.9432 30.8443H23.0142C23.0455 30.8461 23.0768 30.8433 23.1072 30.8359L25.7779 35.467C25.7484 35.4888 25.7251 35.5179 25.7103 35.5515L23.1494 39.962C22.9969 39.9278 22.841 39.9107 22.6846 39.9108C22.1261 39.9118 21.5833 40.0963 21.14 40.4361C20.6967 40.7759 20.3774 41.252 20.2313 41.7911C20.0853 42.3302 20.1206 42.9024 20.3317 43.4195C20.5429 43.9366 20.9183 44.3699 21.4 44.6526C21.7866 44.8805 22.2273 45.0004 22.6762 45C23.0659 44.9996 23.4503 44.9098 23.7998 44.7375C24.1494 44.5652 24.4547 44.3149 24.6923 44.006C24.9299 43.6971 25.0934 43.3378 25.1702 42.9557C25.2471 42.5737 25.2352 42.1791 25.1356 41.8023C25.0386 41.436 24.8594 41.0967 24.6116 40.8101L27.1724 36.408C27.1846 36.3869 27.1932 36.3639 27.1978 36.34H32.6407C32.6453 36.3639 32.6538 36.3869 32.666 36.408L35.2269 40.8101C34.9785 41.0951 34.8018 41.4353 34.7113 41.8023C34.6229 42.1258 34.6005 42.4637 34.6455 42.796C34.6905 43.1283 34.802 43.4482 34.9733 43.7365C35.1958 44.1201 35.515 44.4387 35.8991 44.6604C36.2832 44.8821 36.7188 44.9992 37.1623 45C37.6111 45.0004 38.0518 44.8805 38.4385 44.6526C38.9199 44.3705 39.2952 43.9379 39.5068 43.4216C39.7184 42.9052 39.7544 42.3337 39.6094 41.7949C39.4644 41.256 39.1463 40.7798 38.7042 40.4394C38.262 40.099 37.7203 39.9133 37.1623 39.9108C37.0031 39.9107 36.8444 39.9278 36.689 39.962L34.1281 35.5515C34.1111 35.524 34.0913 35.4983 34.069 35.475L36.7397 30.8354C36.7673 30.8424 36.7958 30.8453 36.8242 30.8439H41.9037C42.0606 31.281 42.3345 31.6667 42.6957 31.9588C43.0568 32.2508 43.4912 32.4381 43.9515 32.5001C44.4118 32.5621 44.8803 32.4965 45.3058 32.3105C45.7314 32.1244 46.0977 31.825 46.3647 31.445C46.6317 31.065 46.7892 30.6189 46.82 30.1555C46.8508 29.692 46.7537 29.2291 46.5393 28.817C46.325 28.405 46.0015 28.0598 45.6044 27.819C45.2072 27.5783 44.7515 27.4513 44.287 27.4518ZM36.427 17.1209C36.5017 16.9921 36.6089 16.8853 36.738 16.8111C36.8671 16.7369 37.0134 16.698 37.1623 16.6984C37.3103 16.7003 37.4552 16.7409 37.5828 16.816C37.7103 16.8911 37.816 16.9983 37.8894 17.1268C37.9628 17.2553 38.0014 17.4008 38.0014 17.5488C38.0013 17.6968 37.9626 17.8423 37.8891 17.9708C37.7727 18.1611 37.5873 18.2992 37.3715 18.356C37.1557 18.4129 36.9263 18.3842 36.7313 18.2759C36.5396 18.1614 36.4004 17.9764 36.3435 17.7605C36.2866 17.5446 36.3166 17.315 36.427 17.1209ZM23.1072 18.2746C22.9121 18.3829 22.6827 18.4116 22.4669 18.3548C22.2512 18.2979 22.0657 18.1599 21.9493 17.9695C21.8758 17.841 21.8371 17.6956 21.8371 17.5475C21.837 17.3995 21.8756 17.2541 21.949 17.1255C22.0224 16.997 22.1281 16.8899 22.2557 16.8147C22.3832 16.7396 22.5281 16.699 22.6762 16.6971C22.8631 16.695 23.0454 16.755 23.1946 16.8676C23.3437 16.9803 23.4514 17.1391 23.5007 17.3194C23.5499 17.4998 23.538 17.6913 23.4668 17.8641C23.3956 18.037 23.2692 18.1813 23.1072 18.2746ZM15.5514 30.8469C15.3835 30.8474 15.2193 30.7982 15.0794 30.7054C14.9396 30.6125 14.8304 30.4803 14.7657 30.3253C14.7011 30.1704 14.6839 29.9998 14.7163 29.8351C14.7487 29.6704 14.8292 29.519 14.9477 29.4001C15.0662 29.2812 15.2173 29.2001 15.3819 29.1671C15.5465 29.1342 15.7172 29.1508 15.8723 29.2149C16.0275 29.279 16.1601 29.3877 16.2534 29.5272C16.3468 29.6668 16.3966 29.8309 16.3966 29.9987C16.3964 30.2231 16.3073 30.4382 16.149 30.5972C15.9906 30.7561 15.7758 30.8458 15.5514 30.8469ZM23.4114 42.8824C23.2952 43.073 23.1098 43.2112 22.894 43.2681C22.6782 43.325 22.4487 43.2963 22.2536 43.188C22.1572 43.1317 22.0729 43.057 22.0054 42.9681C21.9379 42.8793 21.8887 42.778 21.8604 42.67C21.8321 42.5621 21.8254 42.4496 21.8407 42.3391C21.856 42.2285 21.8929 42.1221 21.9493 42.0259C22.0256 41.8991 22.1335 41.7942 22.2623 41.7214C22.3911 41.6486 22.5366 41.6104 22.6846 41.6105C22.8335 41.6096 22.9799 41.6483 23.1088 41.7225C23.2378 41.7968 23.3448 41.904 23.4187 42.0332C23.4927 42.1624 23.531 42.3089 23.5297 42.4578C23.5284 42.6066 23.4876 42.7524 23.4114 42.8803V42.8824ZM36.7313 41.7208C36.9261 41.6113 37.1559 41.5819 37.372 41.6388C37.5881 41.6958 37.7736 41.8346 37.8891 42.0259C37.9456 42.1221 37.9825 42.2285 37.9977 42.3391C38.013 42.4496 38.0063 42.5621 37.978 42.67C37.9498 42.778 37.9005 42.8793 37.833 42.9681C37.7656 43.057 37.6812 43.1317 37.5849 43.188C37.4576 43.2655 37.3114 43.3066 37.1623 43.3067C37.0134 43.3073 36.8669 43.2685 36.7378 43.1943C36.6087 43.1201 36.5015 43.0131 36.427 42.8841C36.3158 42.6885 36.2855 42.4572 36.3423 42.2396C36.3991 42.0219 36.5387 41.835 36.7313 41.7186V41.7208ZM32.5984 34.6467H27.2485L24.5778 29.9983L27.2485 25.3588H32.5984L35.2691 29.9983L32.5984 34.6467ZM44.287 30.8469C44.1192 30.8474 43.9549 30.7982 43.815 30.7054C43.6752 30.6125 43.566 30.4803 43.5014 30.3253C43.4367 30.1704 43.4195 29.9998 43.4519 29.8351C43.4843 29.6704 43.5648 29.519 43.6833 29.4001C43.8018 29.2812 43.9529 29.2001 44.1175 29.1671C44.2821 29.1342 44.4528 29.1508 44.6079 29.2149C44.7631 29.279 44.8957 29.3877 44.9891 29.5272C45.0824 29.6668 45.1322 29.8309 45.1322 29.9987C45.132 30.2231 45.043 30.4382 44.8846 30.5972C44.7262 30.7561 44.5114 30.8458 44.287 30.8469Z" fill="#DAF070"/>
</svg>
