<svg width="61" height="60" viewBox="0 0 61 60" fill="none" xmlns="http://www.w3.org/2000/svg">
<rect x="0.265625" width="59.9537" height="60" rx="29.9769" fill="#DAF070"/>
<path d="M40.6191 29.4275C40.3263 29.4275 40.0454 29.3111 39.8383 29.1038C39.6313 28.8966 39.5149 28.6155 39.5149 28.3225V25.2018C39.5149 20.7816 35.4338 17.2455 30.4163 17.2455C25.3989 17.2455 21.3178 20.8258 21.3178 25.2018V28.3225C21.3178 28.6155 21.2014 28.8966 20.9944 29.1038C20.7873 29.3111 20.5064 29.4275 20.2136 29.4275C19.9207 29.4275 19.6399 29.3111 19.4328 29.1038C19.2257 28.8966 19.1094 28.6155 19.1094 28.3225V25.2018C19.1094 19.5793 24.1887 15 30.4163 15C36.644 15 41.7233 19.5793 41.7233 25.2018V28.3225C41.7245 28.4679 41.6967 28.6121 41.6417 28.7467C41.5866 28.8813 41.5053 29.0036 41.4025 29.1065C41.2998 29.2093 41.1776 29.2907 41.0431 29.3458C40.9086 29.4009 40.7644 29.4287 40.6191 29.4275Z" fill="#12141D"/>
<path d="M37.6311 39.8245C37.3383 39.8245 37.0574 39.7081 36.8504 39.5009C36.6433 39.2936 36.5269 39.0125 36.5269 38.7195V28.2259C36.5361 27.939 36.6565 27.667 36.8626 27.4673C37.0687 27.2677 37.3443 27.1561 37.6311 27.1563C41.4384 27.1563 44.539 30.0117 44.539 33.5125C44.539 37.0133 41.4384 39.8245 37.6311 39.8245ZM38.7353 29.4459V37.4995C39.7021 37.3393 40.585 36.853 41.2374 36.1213C41.8898 35.3896 42.2724 34.4565 42.3218 33.4771C42.2744 32.4962 41.8926 31.5611 41.24 30.8276C40.5875 30.094 39.7035 29.6064 38.7353 29.4459ZM23.1618 39.8245C19.3545 39.8245 16.2539 36.9779 16.2539 33.4771C16.2539 29.9763 19.3545 27.1563 23.1618 27.1563C23.4546 27.1563 23.7355 27.2727 23.9425 27.4799C24.1496 27.6871 24.266 27.9682 24.266 28.2613V38.7195C24.266 39.0125 24.1496 39.2936 23.9425 39.5009C23.7355 39.7081 23.4546 39.8245 23.1618 39.8245ZM22.0576 29.4459C21.0894 29.6064 20.2054 30.094 19.5529 30.8276C18.9003 31.5611 18.5185 32.4962 18.4711 33.4771C18.5205 34.4565 18.9031 35.3896 19.5555 36.1213C20.2079 36.853 21.0908 37.3393 22.0576 37.4995V29.4459Z" fill="#12141D"/>
<path d="M37.2691 43.4233H33.612C33.3192 43.4233 33.0383 43.3068 32.8312 43.0996C32.6241 42.8924 32.5078 42.6113 32.5078 42.3182C32.5078 42.0251 32.6241 41.7441 32.8312 41.5368C33.0383 41.3296 33.3192 41.2132 33.612 41.2132H37.2691C37.8408 41.2132 38.389 40.9859 38.7932 40.5814C39.1974 40.1769 39.4245 39.6282 39.4245 39.0561V38.5699C39.4245 38.2768 39.5408 37.9957 39.7479 37.7885C39.955 37.5813 40.2358 37.4648 40.5287 37.4648C40.8215 37.4648 41.1024 37.5813 41.3095 37.7885C41.5166 37.9957 41.6329 38.2768 41.6329 38.5699V39.0561C41.6329 40.2144 41.1731 41.3252 40.3548 42.1442C39.5364 42.9632 38.4265 43.4233 37.2691 43.4233Z" fill="#12141D"/>
<path d="M31.7225 45.5006H29.5406C28.7394 45.5006 27.9709 45.1821 27.4044 44.6151C26.8378 44.0481 26.5195 43.2791 26.5195 42.4772V42.3534C26.5219 41.5531 26.8412 40.7864 27.4075 40.2213C27.9738 39.6562 28.7409 39.3389 29.5406 39.3389H31.7225C32.5214 39.3389 33.2876 39.6565 33.8525 40.2218C34.4174 40.7872 34.7347 41.5539 34.7347 42.3534V42.4772C34.7348 43.2775 34.4177 44.0452 33.853 44.612C33.2884 45.1787 32.5222 45.4983 31.7225 45.5006ZM29.5583 41.549C29.3443 41.549 29.1389 41.6334 28.9867 41.784C28.8346 41.9347 28.7479 42.1393 28.7456 42.3534V42.4772C28.7456 42.6929 28.8312 42.8998 28.9836 43.0523C29.136 43.2048 29.3427 43.2905 29.5583 43.2905H31.7225C31.9365 43.2882 32.141 43.2015 32.2915 43.0492C32.442 42.8969 32.5264 42.6914 32.5264 42.4772V42.3534C32.5264 42.1401 32.4417 41.9355 32.2909 41.7846C32.1402 41.6337 31.9357 41.549 31.7225 41.549H29.5583Z" fill="#12141D"/>
</svg>
