<svg width="667" height="436" viewBox="0 0 667 436" fill="none" xmlns="http://www.w3.org/2000/svg">
<g filter="url(#filter0_d_315_10663)">
<rect x="61.5195" y="57.6553" width="448.48" height="312.836" rx="12.2202" fill="white"/>
<rect x="105.512" y="101.648" width="48.8806" height="48.8806" rx="14.6642" fill="#008EFF"/>
<g clip-path="url(#clip0_315_10663)">
<path d="M118.956 115.09H140.953C141.277 115.09 141.588 115.219 141.817 115.448C142.046 115.677 142.175 115.988 142.175 116.312V135.864C142.175 136.188 142.046 136.499 141.817 136.728C141.588 136.957 141.277 137.086 140.953 137.086H118.956C118.632 137.086 118.321 136.957 118.092 136.728C117.863 136.499 117.734 136.188 117.734 135.864V116.312C117.734 115.988 117.863 115.677 118.092 115.448C118.321 115.219 118.632 115.09 118.956 115.09ZM139.731 124.866H120.178V134.642H139.731V124.866ZM139.731 122.422V117.534H120.178V122.422H139.731ZM132.399 129.754H137.287V132.198H132.399V129.754Z" fill="#FCFCFC"/>
</g>
<path d="M177.171 121.481L178.095 118.644H182.584L183.508 121.481H186.327L182.038 109.039H178.648L174.352 121.481H177.171ZM178.763 116.59L180.294 111.882H180.391L181.922 116.59H178.763ZM190.78 121.633C192.287 121.633 193.071 120.764 193.429 119.987H193.538V121.481H196.09V109.039H193.508V113.717H193.429C193.083 112.957 192.335 112.028 190.774 112.028C188.727 112.028 186.995 113.62 186.995 116.827C186.995 119.95 188.654 121.633 190.78 121.633ZM191.6 119.573C190.331 119.573 189.638 118.443 189.638 116.815C189.638 115.199 190.318 114.087 191.6 114.087C192.858 114.087 193.563 115.151 193.563 116.815C193.563 118.48 192.846 119.573 191.6 119.573ZM201.657 121.633C203.163 121.633 203.947 120.764 204.305 119.987H204.415V121.481H206.966V109.039H204.384V113.717H204.305C203.959 112.957 203.212 112.028 201.65 112.028C199.603 112.028 197.872 113.62 197.872 116.827C197.872 119.95 199.53 121.633 201.657 121.633ZM202.477 119.573C201.207 119.573 200.514 118.443 200.514 116.815C200.514 115.199 201.195 114.087 202.477 114.087C203.734 114.087 204.439 115.151 204.439 116.815C204.439 118.48 203.722 119.573 202.477 119.573ZM224.081 113.395C223.734 110.521 221.559 108.869 218.68 108.869C215.393 108.869 212.884 111.189 212.884 115.26C212.884 119.318 215.35 121.651 218.68 121.651C221.869 121.651 223.795 119.531 224.081 117.24L221.42 117.228C221.171 118.559 220.126 119.324 218.722 119.324C216.833 119.324 215.551 117.921 215.551 115.26C215.551 112.672 216.815 111.195 218.74 111.195C220.18 111.195 221.219 112.028 221.42 113.395H224.081ZM228.58 121.657C229.959 121.657 230.852 121.056 231.307 120.187H231.38V121.481H233.835V115.187C233.835 112.963 231.951 112.028 229.874 112.028C227.638 112.028 226.168 113.097 225.809 114.798L228.203 114.993C228.379 114.373 228.932 113.917 229.861 113.917C230.742 113.917 231.247 114.361 231.247 115.126V115.163C231.247 115.764 230.609 115.843 228.987 116.001C227.14 116.171 225.481 116.791 225.481 118.875C225.481 120.722 226.799 121.657 228.58 121.657ZM229.321 119.871C228.525 119.871 227.954 119.501 227.954 118.79C227.954 118.061 228.555 117.702 229.467 117.575C230.032 117.496 230.955 117.362 231.265 117.155V118.146C231.265 119.124 230.457 119.871 229.321 119.871ZM235.843 121.481H238.431V116.202C238.431 115.053 239.269 114.264 240.411 114.264C240.77 114.264 241.262 114.324 241.505 114.403V112.107C241.274 112.052 240.952 112.016 240.691 112.016C239.646 112.016 238.789 112.623 238.449 113.778H238.352V112.149H235.843V121.481ZM245.847 121.633C247.354 121.633 248.138 120.764 248.496 119.987H248.605V121.481H251.157V109.039H248.575V113.717H248.496C248.15 112.957 247.403 112.028 245.841 112.028C243.794 112.028 242.062 113.62 242.062 116.827C242.062 119.95 243.721 121.633 245.847 121.633ZM246.667 119.573C245.398 119.573 244.705 118.443 244.705 116.815C244.705 115.199 245.385 114.087 246.667 114.087C247.925 114.087 248.63 115.151 248.63 116.815C248.63 118.48 247.913 119.573 246.667 119.573Z" fill="#1E1E20"/>
<path d="M175.674 144.365L176.747 141.345H181.059L182.131 144.365H183.485L179.569 133.701H178.236L174.32 144.365H175.674ZM177.153 140.2L178.861 135.388H178.944L180.653 140.2H177.153ZM188 144.532C189.542 144.532 190.062 143.574 190.333 143.137H190.479V144.365H191.666V133.701H190.437V137.637H190.333C190.062 137.221 189.583 136.263 188.021 136.263C186.001 136.263 184.605 137.867 184.605 140.387C184.605 142.928 186.001 144.532 188 144.532ZM188.167 143.428C186.625 143.428 185.834 142.074 185.834 140.366C185.834 138.679 186.605 137.367 188.167 137.367C189.667 137.367 190.458 138.575 190.458 140.366C190.458 142.178 189.646 143.428 188.167 143.428ZM197.108 144.532C198.649 144.532 199.17 143.574 199.441 143.137H199.587V144.365H200.774V133.701H199.545V137.637H199.441C199.17 137.221 198.691 136.263 197.129 136.263C195.108 136.263 193.713 137.867 193.713 140.387C193.713 142.928 195.108 144.532 197.108 144.532ZM197.275 143.428C195.733 143.428 194.942 142.074 194.942 140.366C194.942 138.679 195.712 137.367 197.275 137.367C198.774 137.367 199.566 138.575 199.566 140.366C199.566 142.178 198.754 143.428 197.275 143.428ZM209.674 144.553C211.069 144.553 211.798 143.803 212.048 143.282H212.111V144.365H213.34V139.096C213.34 136.554 211.403 136.263 210.382 136.263C209.174 136.263 207.799 136.679 207.174 138.137L208.341 138.554C208.611 137.971 209.252 137.346 210.424 137.346C211.554 137.346 212.111 137.945 212.111 138.971V139.012C212.111 139.606 211.507 139.554 210.049 139.741C208.564 139.934 206.945 140.262 206.945 142.095C206.945 143.657 208.153 144.553 209.674 144.553ZM209.861 143.449C208.882 143.449 208.174 143.012 208.174 142.158C208.174 141.22 209.028 140.929 209.986 140.804C210.507 140.741 211.902 140.595 212.111 140.345V141.47C212.111 142.47 211.319 143.449 209.861 143.449ZM222.957 144.532C224.727 144.532 225.894 143.449 226.102 142.033H224.873C224.644 142.907 223.915 143.428 222.957 143.428C221.498 143.428 220.561 142.22 220.561 140.366C220.561 138.554 221.519 137.367 222.957 137.367C224.04 137.367 224.685 138.033 224.873 138.762H226.102C225.894 137.263 224.623 136.263 222.936 136.263C220.769 136.263 219.332 137.971 219.332 140.408C219.332 142.803 220.707 144.532 222.957 144.532ZM230.252 144.553C231.648 144.553 232.377 143.803 232.627 143.282H232.689V144.365H233.918V139.096C233.918 136.554 231.981 136.263 230.96 136.263C229.752 136.263 228.378 136.679 227.753 138.137L228.919 138.554C229.19 137.971 229.83 137.346 231.002 137.346C232.132 137.346 232.689 137.945 232.689 138.971V139.012C232.689 139.606 232.085 139.554 230.627 139.741C229.143 139.934 227.523 140.262 227.523 142.095C227.523 143.657 228.732 144.553 230.252 144.553ZM230.44 143.449C229.461 143.449 228.752 143.012 228.752 142.158C228.752 141.22 229.606 140.929 230.565 140.804C231.085 140.741 232.481 140.595 232.689 140.345V141.47C232.689 142.47 231.898 143.449 230.44 143.449ZM236.161 144.365H237.39V139.304C237.39 138.221 238.244 137.429 239.411 137.429C239.739 137.429 240.077 137.492 240.161 137.512V136.263C240.02 136.252 239.697 136.242 239.515 136.242C238.557 136.242 237.724 136.783 237.432 137.575H237.349V136.367H236.161V144.365ZM244.394 144.532C245.936 144.532 246.456 143.574 246.727 143.137H246.873V144.365H248.06V133.701H246.831V137.637H246.727C246.456 137.221 245.977 136.263 244.415 136.263C242.395 136.263 240.999 137.867 240.999 140.387C240.999 142.928 242.395 144.532 244.394 144.532ZM244.561 143.428C243.02 143.428 242.228 142.074 242.228 140.366C242.228 138.679 242.999 137.367 244.561 137.367C246.061 137.367 246.852 138.575 246.852 140.366C246.852 142.178 246.04 143.428 244.561 143.428ZM257.856 144.532C260.022 144.532 261.48 142.887 261.48 140.408C261.48 137.908 260.022 136.263 257.856 136.263C255.689 136.263 254.231 137.908 254.231 140.408C254.231 142.887 255.689 144.532 257.856 144.532ZM257.856 143.428C256.21 143.428 255.46 142.012 255.46 140.408C255.46 138.804 256.21 137.367 257.856 137.367C259.501 137.367 260.251 138.804 260.251 140.408C260.251 142.012 259.501 143.428 257.856 143.428ZM266.918 136.367H265.126V135.554C265.126 134.763 265.46 134.346 266.272 134.346C266.626 134.346 266.835 134.43 266.96 134.471L267.314 133.409C267.126 133.326 266.751 133.201 266.147 133.201C265.002 133.201 263.898 133.888 263.898 135.263V136.367H262.606V137.408H263.898V144.365H265.126V137.408H266.918V136.367ZM275.118 144.553C276.514 144.553 277.243 143.803 277.493 143.282H277.555V144.365H278.784V139.096C278.784 136.554 276.847 136.263 275.827 136.263C274.618 136.263 273.244 136.679 272.619 138.137L273.785 138.554C274.056 137.971 274.696 137.346 275.868 137.346C276.998 137.346 277.555 137.945 277.555 138.971V139.012C277.555 139.606 276.951 139.554 275.493 139.741C274.009 139.934 272.39 140.262 272.39 142.095C272.39 143.657 273.598 144.553 275.118 144.553ZM275.306 143.449C274.327 143.449 273.619 143.012 273.619 142.158C273.619 141.22 274.473 140.929 275.431 140.804C275.951 140.741 277.347 140.595 277.555 140.345V141.47C277.555 142.47 276.764 143.449 275.306 143.449ZM282.256 139.554C282.256 138.158 283.121 137.367 284.298 137.367C285.438 137.367 286.131 138.111 286.131 139.366V144.365H287.36V139.283C287.36 137.242 286.271 136.263 284.652 136.263C283.444 136.263 282.694 136.804 282.319 137.617H282.215V136.367H281.027V144.365H282.256V139.554ZM290.111 147.365C291.22 147.365 292.001 146.777 292.464 145.532L295.87 136.388L294.526 136.367L292.319 142.741H292.235L290.027 136.367H288.694L291.652 144.407L291.423 145.032C290.975 146.251 290.423 146.365 289.527 146.136L289.215 147.219C289.34 147.282 289.694 147.365 290.111 147.365ZM301.787 144.365H302.974V143.137H303.12C303.391 143.574 303.912 144.532 305.453 144.532C307.453 144.532 308.848 142.928 308.848 140.387C308.848 137.867 307.453 136.263 305.432 136.263C303.87 136.263 303.391 137.221 303.12 137.637H303.016V133.701H301.787V144.365ZM302.995 140.366C302.995 138.575 303.787 137.367 305.286 137.367C306.849 137.367 307.619 138.679 307.619 140.366C307.619 142.074 306.828 143.428 305.286 143.428C303.807 143.428 302.995 142.178 302.995 140.366ZM313.082 144.553C314.478 144.553 315.207 143.803 315.457 143.282H315.519V144.365H316.748V139.096C316.748 136.554 314.811 136.263 313.79 136.263C312.582 136.263 311.207 136.679 310.582 138.137L311.749 138.554C312.02 137.971 312.66 137.346 313.832 137.346C314.962 137.346 315.519 137.945 315.519 138.971V139.012C315.519 139.606 314.915 139.554 313.457 139.741C311.973 139.934 310.353 140.262 310.353 142.095C310.353 143.657 311.561 144.553 313.082 144.553ZM313.269 143.449C312.29 143.449 311.582 143.012 311.582 142.158C311.582 141.22 312.436 140.929 313.394 140.804C313.915 140.741 315.311 140.595 315.519 140.345V141.47C315.519 142.47 314.727 143.449 313.269 143.449ZM320.22 139.554C320.22 138.158 321.084 137.367 322.261 137.367C323.402 137.367 324.094 138.111 324.094 139.366V144.365H325.323V139.283C325.323 137.242 324.235 136.263 322.615 136.263C321.407 136.263 320.657 136.804 320.283 137.617H320.178V136.367H318.991V144.365H320.22V139.554ZM327.569 144.365H328.798V141.371L329.657 140.574L332.652 144.365H334.214L330.584 139.783L333.964 136.367H332.443L328.944 139.929H328.798V133.701H327.569V144.365Z" fill="#ACACB0" fill-opacity="0.8"/>
<path fill-rule="evenodd" clip-rule="evenodd" d="M451.344 116.007C445.776 116.007 441.263 120.521 441.263 126.088C441.263 131.656 445.776 136.17 451.344 136.17C456.912 136.17 461.426 131.656 461.426 126.088C461.426 120.521 456.912 116.007 451.344 116.007ZM439.43 126.088C439.43 119.508 444.764 114.174 451.344 114.174C457.925 114.174 463.259 119.508 463.259 126.088C463.259 132.669 457.925 138.003 451.344 138.003C444.764 138.003 439.43 132.669 439.43 126.088Z" fill="#ACACB0" fill-opacity="0.8"/>
<rect x="105.512" y="189.633" width="48.8806" height="48.8806" rx="14.6642" fill="#FABB18"/>
<g clip-path="url(#clip1_315_10663)">
<path d="M139.73 201.853C140.702 201.853 141.635 202.239 142.322 202.926C143.01 203.614 143.396 204.546 143.396 205.519V207.963H140.952V222.627C140.952 223.599 140.566 224.532 139.878 225.219C139.191 225.907 138.258 226.293 137.286 226.293H120.178C119.205 226.293 118.273 225.907 117.585 225.219C116.898 224.532 116.512 223.599 116.512 222.627V220.183H136.064V222.627C136.064 222.926 136.174 223.215 136.373 223.439C136.572 223.662 136.846 223.805 137.143 223.84L137.286 223.849C137.585 223.849 137.874 223.739 138.098 223.54C138.322 223.341 138.464 223.067 138.499 222.77L138.508 222.627V204.297H122.622C122.322 204.297 122.034 204.406 121.81 204.605C121.586 204.804 121.443 205.078 121.408 205.376L121.4 205.519V217.739H118.956V205.519C118.956 204.546 119.342 203.614 120.03 202.926C120.717 202.239 121.65 201.853 122.622 201.853H139.73Z" fill="#FCFCFC"/>
</g>
<path d="M177.171 209.466L178.095 206.629H182.584L183.508 209.466H186.327L182.038 197.024H178.648L174.352 209.466H177.171ZM178.763 204.575L180.294 199.867H180.391L181.922 204.575H178.763ZM190.78 209.618C192.287 209.618 193.071 208.749 193.429 207.971H193.538V209.466H196.09V197.024H193.508V201.702H193.429C193.083 200.942 192.335 200.013 190.774 200.013C188.727 200.013 186.995 201.604 186.995 204.812C186.995 207.935 188.654 209.618 190.78 209.618ZM191.6 207.558C190.331 207.558 189.638 206.428 189.638 204.8C189.638 203.184 190.318 202.072 191.6 202.072C192.858 202.072 193.563 203.135 193.563 204.8C193.563 206.465 192.846 207.558 191.6 207.558ZM201.657 209.618C203.163 209.618 203.947 208.749 204.305 207.971H204.415V209.466H206.966V197.024H204.384V201.702H204.305C203.959 200.942 203.212 200.013 201.65 200.013C199.603 200.013 197.872 201.604 197.872 204.812C197.872 207.935 199.53 209.618 201.657 209.618ZM202.477 207.558C201.207 207.558 200.514 206.428 200.514 204.8C200.514 203.184 201.195 202.072 202.477 202.072C203.734 202.072 204.439 203.135 204.439 204.8C204.439 206.465 203.722 207.558 202.477 207.558ZM224.081 201.38C223.734 198.506 221.559 196.853 218.68 196.853C215.393 196.853 212.884 199.174 212.884 203.245C212.884 207.303 215.35 209.636 218.68 209.636C221.869 209.636 223.795 207.516 224.081 205.225L221.42 205.213C221.171 206.544 220.126 207.309 218.722 207.309C216.833 207.309 215.551 205.906 215.551 203.245C215.551 200.657 216.815 199.18 218.74 199.18C220.18 199.18 221.219 200.013 221.42 201.38H224.081ZM225.919 209.466H228.507V204.186C228.507 203.038 229.345 202.248 230.487 202.248C230.846 202.248 231.338 202.309 231.581 202.388V200.092C231.35 200.037 231.028 200.001 230.767 200.001C229.722 200.001 228.865 200.608 228.525 201.762H228.428V200.134H225.919V209.466ZM234.801 212.965C236.727 212.965 237.747 211.981 238.276 210.474L241.903 200.146L239.163 200.134L237.213 206.987H237.115L235.183 200.134H232.462L235.809 209.733L235.657 210.128C235.317 211.003 234.667 211.046 233.756 210.766L233.172 212.698C233.543 212.856 234.145 212.965 234.801 212.965ZM243.227 212.965H245.815V207.971H245.894C246.253 208.749 247.036 209.618 248.543 209.618C250.67 209.618 252.328 207.935 252.328 204.812C252.328 201.604 250.597 200.013 248.549 200.013C246.988 200.013 246.241 200.942 245.894 201.702H245.779V200.134H243.227V212.965ZM245.761 204.8C245.761 203.135 246.465 202.072 247.723 202.072C249.005 202.072 249.685 203.184 249.685 204.8C249.685 206.428 248.993 207.558 247.723 207.558C246.478 207.558 245.761 206.465 245.761 204.8ZM259.017 200.134H257.261V197.898H254.673V200.134H253.397V202.078H254.673V206.939C254.661 208.767 255.906 209.673 257.784 209.594C258.452 209.569 258.926 209.436 259.187 209.351L258.78 207.425C258.653 207.449 258.379 207.51 258.136 207.51C257.62 207.51 257.261 207.315 257.261 206.598V202.078H259.017V200.134ZM264.819 209.648C267.65 209.648 269.412 207.71 269.412 204.837C269.412 201.945 267.65 200.013 264.819 200.013C261.988 200.013 260.226 201.945 260.226 204.837C260.226 207.71 261.988 209.648 264.819 209.648ZM264.831 207.643C263.525 207.643 262.857 206.446 262.857 204.818C262.857 203.19 263.525 201.987 264.831 201.987C266.113 201.987 266.781 203.19 266.781 204.818C266.781 206.446 266.113 207.643 264.831 207.643ZM277.904 209.466H280.468L282.831 201.331H282.928L285.298 209.466H287.861L291.422 197.024H288.548L286.488 205.687H286.379L284.113 197.024H281.652L279.38 205.669H279.277L277.217 197.024H274.344L277.904 209.466ZM294.439 209.642C295.819 209.642 296.712 209.041 297.167 208.172H297.24V209.466H299.695V203.172C299.695 200.948 297.811 200.013 295.734 200.013C293.498 200.013 292.028 201.082 291.669 202.783L294.063 202.977C294.239 202.358 294.792 201.902 295.721 201.902C296.602 201.902 297.107 202.346 297.107 203.111V203.148C297.107 203.749 296.469 203.828 294.847 203.986C293 204.156 291.341 204.776 291.341 206.86C291.341 208.707 292.659 209.642 294.439 209.642ZM295.181 207.856C294.385 207.856 293.814 207.485 293.814 206.775C293.814 206.046 294.415 205.687 295.326 205.559C295.891 205.481 296.815 205.347 297.125 205.14V206.131C297.125 207.109 296.317 207.856 295.181 207.856ZM304.291 197.024H301.703V209.466H304.291V197.024ZM308.952 197.024H306.364V209.466H308.952V197.024ZM315.278 209.648C317.587 209.648 319.142 208.524 319.506 206.793L317.113 206.635C316.851 207.346 316.183 207.716 315.32 207.716C314.026 207.716 313.206 206.86 313.206 205.468V205.462H319.561V204.751C319.561 201.58 317.641 200.013 315.175 200.013C312.429 200.013 310.649 201.963 310.649 204.843C310.649 207.801 312.404 209.648 315.278 209.648ZM313.206 203.858C313.261 202.795 314.069 201.945 315.217 201.945C316.341 201.945 317.119 202.747 317.125 203.858H313.206ZM326.214 200.134H324.458V197.898H321.87V200.134H320.594V202.078H321.87V206.939C321.858 208.767 323.103 209.673 324.98 209.594C325.649 209.569 326.122 209.436 326.384 209.351L325.977 207.425C325.849 207.449 325.576 207.51 325.333 207.51C324.816 207.51 324.458 207.315 324.458 206.598V202.078H326.214V200.134Z" fill="#1E1E20"/>
<path d="M183.819 225.018C183.423 222.831 181.673 221.54 179.528 221.54C176.799 221.54 174.82 223.643 174.82 227.018C174.82 230.392 176.799 232.496 179.528 232.496C181.673 232.496 183.423 231.205 183.819 229.018H182.527C182.215 230.496 180.944 231.288 179.528 231.288C177.591 231.288 176.07 229.788 176.07 227.018C176.07 224.248 177.591 222.748 179.528 222.748C180.944 222.748 182.215 223.539 182.527 225.018H183.819ZM188.988 232.517C191.155 232.517 192.613 230.871 192.613 228.393C192.613 225.893 191.155 224.248 188.988 224.248C186.822 224.248 185.364 225.893 185.364 228.393C185.364 230.871 186.822 232.517 188.988 232.517ZM188.988 231.413C187.343 231.413 186.593 229.997 186.593 228.393C186.593 226.789 187.343 225.352 188.988 225.352C190.634 225.352 191.384 226.789 191.384 228.393C191.384 229.997 190.634 231.413 188.988 231.413ZM195.718 227.539C195.718 226.143 196.582 225.352 197.759 225.352C198.899 225.352 199.592 226.096 199.592 227.351V232.35H200.821V227.268C200.821 225.227 199.733 224.248 198.113 224.248C196.905 224.248 196.155 224.789 195.78 225.601H195.676V224.352H194.489V232.35H195.718V227.539ZM204.296 227.539C204.296 226.143 205.16 225.352 206.337 225.352C207.477 225.352 208.17 226.096 208.17 227.351V232.35H209.399V227.268C209.399 225.227 208.311 224.248 206.691 224.248C205.483 224.248 204.733 224.789 204.358 225.601H204.254V224.352H203.067V232.35H204.296V227.539ZM214.998 232.517C216.623 232.517 217.81 231.705 218.185 230.496L216.998 230.163C216.685 230.996 215.962 231.413 214.998 231.413C213.556 231.413 212.561 230.481 212.504 228.768H218.31V228.247C218.31 225.268 216.54 224.248 214.873 224.248C212.707 224.248 211.27 225.956 211.27 228.414C211.27 230.871 212.686 232.517 214.998 232.517ZM212.504 227.705C212.587 226.461 213.467 225.352 214.873 225.352C216.206 225.352 217.06 226.351 217.06 227.705H212.504ZM223.429 232.517C225.2 232.517 226.366 231.434 226.574 230.017H225.345C225.116 230.892 224.387 231.413 223.429 231.413C221.971 231.413 221.034 230.205 221.034 228.351C221.034 226.539 221.992 225.352 223.429 225.352C224.512 225.352 225.158 226.018 225.345 226.747H226.574C226.366 225.247 225.096 224.248 223.408 224.248C221.242 224.248 219.805 225.956 219.805 228.393C219.805 230.788 221.18 232.517 223.429 232.517ZM231.85 224.352H230.142V222.435H228.913V224.352H227.704V225.393H228.913V230.392C228.913 231.788 230.037 232.454 231.079 232.454C231.537 232.454 231.829 232.371 231.995 232.309L231.745 231.205C231.641 231.226 231.475 231.267 231.204 231.267C230.662 231.267 230.142 231.101 230.142 230.059V225.393H231.85V224.352ZM238.614 235.35C239.723 235.35 240.504 234.761 240.968 233.517L244.374 224.373L243.03 224.352L240.822 230.726H240.739L238.531 224.352H237.198L240.155 232.392L239.926 233.017C239.478 234.235 238.927 234.35 238.031 234.121L237.718 235.204C237.843 235.267 238.197 235.35 238.614 235.35ZM248.963 232.517C251.129 232.517 252.587 230.871 252.587 228.393C252.587 225.893 251.129 224.248 248.963 224.248C246.796 224.248 245.338 225.893 245.338 228.393C245.338 230.871 246.796 232.517 248.963 232.517ZM248.963 231.413C247.317 231.413 246.567 229.997 246.567 228.393C246.567 226.789 247.317 225.352 248.963 225.352C250.608 225.352 251.358 226.789 251.358 228.393C251.358 229.997 250.608 231.413 248.963 231.413ZM259.504 229.08C259.504 230.58 258.358 231.267 257.442 231.267C256.421 231.267 255.692 230.517 255.692 229.351V224.352H254.463V229.434C254.463 231.475 255.546 232.454 257.046 232.454C258.254 232.454 259.045 231.809 259.42 230.996H259.504V232.35H260.733V224.352H259.504V229.08ZM262.984 232.35H264.213V227.289C264.213 226.206 265.067 225.414 266.233 225.414C266.561 225.414 266.9 225.477 266.983 225.497V224.248C266.842 224.237 266.519 224.227 266.337 224.227C265.379 224.227 264.546 224.768 264.254 225.56H264.171V224.352H262.984V232.35ZM275.813 232.517C277.584 232.517 278.75 231.434 278.959 230.017H277.73C277.501 230.892 276.772 231.413 275.813 231.413C274.355 231.413 273.418 230.205 273.418 228.351C273.418 226.539 274.376 225.352 275.813 225.352C276.897 225.352 277.542 226.018 277.73 226.747H278.959C278.75 225.247 277.48 224.248 275.793 224.248C273.626 224.248 272.189 225.956 272.189 228.393C272.189 230.788 273.564 232.517 275.813 232.517ZM280.755 232.35H281.984V227.289C281.984 226.206 282.838 225.414 284.005 225.414C284.333 225.414 284.671 225.477 284.755 225.497V224.248C284.614 224.237 284.291 224.227 284.109 224.227C283.151 224.227 282.318 224.768 282.026 225.56H281.943V224.352H280.755V232.35ZM287.246 235.35C288.356 235.35 289.137 234.761 289.6 233.517L293.006 224.373L291.662 224.352L289.454 230.726H289.371L287.163 224.352H285.83L288.788 232.392L288.559 233.017C288.111 234.235 287.559 234.35 286.663 234.121L286.351 235.204C286.476 235.267 286.83 235.35 287.246 235.35ZM294.632 235.35H295.861V231.121H295.965C296.236 231.559 296.757 232.517 298.298 232.517C300.298 232.517 301.693 230.913 301.693 228.372C301.693 225.851 300.298 224.248 298.277 224.248C296.715 224.248 296.236 225.206 295.965 225.622H295.819V224.352H294.632V235.35ZM295.84 228.351C295.84 226.56 296.632 225.352 298.131 225.352C299.694 225.352 300.464 226.664 300.464 228.351C300.464 230.059 299.673 231.413 298.131 231.413C296.652 231.413 295.84 230.163 295.84 228.351ZM307.046 224.352H305.338V222.435H304.109V224.352H302.901V225.393H304.109V230.392C304.109 231.788 305.234 232.454 306.276 232.454C306.734 232.454 307.026 232.371 307.192 232.309L306.942 231.205C306.838 231.226 306.672 231.267 306.401 231.267C305.859 231.267 305.338 231.101 305.338 230.059V225.393H307.046V224.352ZM312.059 232.517C314.225 232.517 315.683 230.871 315.683 228.393C315.683 225.893 314.225 224.248 312.059 224.248C309.892 224.248 308.434 225.893 308.434 228.393C308.434 230.871 309.892 232.517 312.059 232.517ZM312.059 231.413C310.413 231.413 309.663 229.997 309.663 228.393C309.663 226.789 310.413 225.352 312.059 225.352C313.704 225.352 314.454 226.789 314.454 228.393C314.454 229.997 313.704 231.413 312.059 231.413ZM323.496 232.35H324.704L326.453 226.206H326.578L328.328 232.35H329.536L331.973 224.352H330.682L328.953 230.455H328.87L327.182 224.352H325.87L324.162 230.476H324.079L322.35 224.352H321.058L323.496 232.35ZM335.952 232.538C337.347 232.538 338.076 231.788 338.326 231.267H338.389V232.35H339.618V227.08C339.618 224.539 337.681 224.248 336.66 224.248C335.452 224.248 334.077 224.664 333.452 226.122L334.619 226.539C334.889 225.956 335.53 225.331 336.702 225.331C337.832 225.331 338.389 225.93 338.389 226.955V226.997C338.389 227.591 337.785 227.539 336.327 227.726C334.843 227.919 333.223 228.247 333.223 230.08C333.223 231.642 334.431 232.538 335.952 232.538ZM336.139 231.434C335.16 231.434 334.452 230.996 334.452 230.142C334.452 229.205 335.306 228.913 336.264 228.788C336.785 228.726 338.181 228.58 338.389 228.33V229.455C338.389 230.455 337.597 231.434 336.139 231.434ZM343.09 221.685H341.861V232.35H343.09V221.685ZM346.57 221.685H345.341V232.35H346.57V221.685ZM352.174 232.517C353.799 232.517 354.986 231.705 355.361 230.496L354.174 230.163C353.861 230.996 353.138 231.413 352.174 231.413C350.732 231.413 349.737 230.481 349.68 228.768H355.486V228.247C355.486 225.268 353.716 224.248 352.049 224.248C349.883 224.248 348.446 225.956 348.446 228.414C348.446 230.871 349.862 232.517 352.174 232.517ZM349.68 227.705C349.763 226.461 350.643 225.352 352.049 225.352C353.382 225.352 354.236 226.351 354.236 227.705H349.68ZM360.834 224.352H359.126V222.435H357.897V224.352H356.689V225.393H357.897V230.392C357.897 231.788 359.022 232.454 360.064 232.454C360.522 232.454 360.813 232.371 360.98 232.309L360.73 231.205C360.626 231.226 360.459 231.267 360.189 231.267C359.647 231.267 359.126 231.101 359.126 230.059V225.393H360.834V224.352Z" fill="#ACACB0" fill-opacity="0.8"/>
<path fill-rule="evenodd" clip-rule="evenodd" d="M451.344 203.991C445.776 203.991 441.263 208.505 441.263 214.073C441.263 219.641 445.776 224.154 451.344 224.154C456.912 224.154 461.426 219.641 461.426 214.073C461.426 208.505 456.912 203.991 451.344 203.991ZM439.43 214.073C439.43 207.493 444.764 202.158 451.344 202.158C457.925 202.158 463.259 207.493 463.259 214.073C463.259 220.653 457.925 225.988 451.344 225.988C444.764 225.988 439.43 220.653 439.43 214.073Z" fill="#ACACB0" fill-opacity="0.8"/>
<rect x="85.9609" y="258.066" width="399.599" height="87.9851" rx="14.6642" fill="#F6F6F6"/>
<rect x="105.512" y="277.618" width="48.8806" height="48.8806" rx="14.6642" fill="#F23936"/>
<path fill-rule="evenodd" clip-rule="evenodd" d="M115.289 296.926C115.289 291.662 119.557 287.394 124.821 287.394H135.086C140.35 287.394 144.617 291.662 144.617 296.926V307.191C144.617 312.455 140.35 316.723 135.086 316.723H124.821C119.557 316.723 115.289 312.455 115.289 307.191V296.926ZM136.982 292.264C137.467 292.044 138.019 292.399 138.019 292.932V301.921C138.019 302.209 137.85 302.47 137.589 302.589L131.723 305.254C131.238 305.474 130.686 305.119 130.686 304.586V295.597C130.686 295.31 130.855 295.048 131.116 294.93L136.982 292.264ZM122.934 292.287C122.447 292.057 121.888 292.412 121.888 292.95V309.868C121.888 310.152 122.052 310.41 122.308 310.532L128.174 313.297C128.661 313.526 129.22 313.171 129.22 312.634V295.715C129.22 295.431 129.056 295.173 128.799 295.052L122.934 292.287Z" fill="#FCFCFC"/>
<path d="M177.171 297.451L178.095 294.614H182.584L183.508 297.451H186.327L182.038 285.008H178.648L174.352 297.451H177.171ZM178.763 292.56L180.294 287.852H180.391L181.922 292.56H178.763ZM190.78 297.603C192.287 297.603 193.071 296.734 193.429 295.956H193.538V297.451H196.09V285.008H193.508V289.686H193.429C193.083 288.927 192.335 287.998 190.774 287.998C188.727 287.998 186.995 289.589 186.995 292.797C186.995 295.92 188.654 297.603 190.78 297.603ZM191.6 295.543C190.331 295.543 189.638 294.413 189.638 292.785C189.638 291.169 190.318 290.057 191.6 290.057C192.858 290.057 193.563 291.12 193.563 292.785C193.563 294.45 192.846 295.543 191.6 295.543ZM201.657 297.603C203.163 297.603 203.947 296.734 204.305 295.956H204.415V297.451H206.966V285.008H204.384V289.686H204.305C203.959 288.927 203.212 287.998 201.65 287.998C199.603 287.998 197.872 289.589 197.872 292.797C197.872 295.92 199.53 297.603 201.657 297.603ZM202.477 295.543C201.207 295.543 200.514 294.413 200.514 292.785C200.514 291.169 201.195 290.057 202.477 290.057C203.734 290.057 204.439 291.12 204.439 292.785C204.439 294.45 203.722 295.543 202.477 295.543ZM220.788 285.008V292.864C220.788 294.286 219.792 295.312 218.261 295.312C216.736 295.312 215.733 294.286 215.733 292.864V285.008H213.103V293.089C213.103 295.81 215.156 297.627 218.261 297.627C221.353 297.627 223.418 295.81 223.418 293.089V285.008H220.788ZM228.122 292.056C228.128 290.853 228.845 290.148 229.89 290.148C230.929 290.148 231.555 290.829 231.549 291.971V297.451H234.137V291.509C234.137 289.334 232.861 287.998 230.917 287.998C229.532 287.998 228.529 288.678 228.11 289.765H228.001V288.119H225.534V297.451H228.122V292.056ZM236.177 297.451H238.765V288.119H236.177V297.451ZM237.477 286.916C238.248 286.916 238.88 286.327 238.88 285.604C238.88 284.887 238.248 284.298 237.477 284.298C236.711 284.298 236.08 284.887 236.08 285.604C236.08 286.327 236.711 286.916 237.477 286.916ZM240.838 300.95H243.426V295.956H243.505C243.864 296.734 244.647 297.603 246.154 297.603C248.28 297.603 249.939 295.92 249.939 292.797C249.939 289.589 248.207 287.998 246.16 287.998C244.599 287.998 243.851 288.927 243.505 289.686H243.39V288.119H240.838V300.95ZM243.372 292.785C243.372 291.12 244.076 290.057 245.334 290.057C246.616 290.057 247.296 291.169 247.296 292.785C247.296 294.413 246.604 295.543 245.334 295.543C244.088 295.543 243.372 294.45 243.372 292.785ZM254.325 297.627C255.704 297.627 256.598 297.026 257.053 296.157H257.126V297.451H259.581V291.157C259.581 288.933 257.697 287.998 255.619 287.998C253.384 287.998 251.913 289.067 251.555 290.768L253.949 290.962C254.125 290.343 254.678 289.887 255.607 289.887C256.488 289.887 256.992 290.33 256.992 291.096V291.132C256.992 291.734 256.355 291.813 254.732 291.971C252.886 292.141 251.227 292.761 251.227 294.844C251.227 296.691 252.545 297.627 254.325 297.627ZM255.067 295.841C254.271 295.841 253.7 295.47 253.7 294.759C253.7 294.03 254.301 293.672 255.212 293.544C255.777 293.465 256.701 293.332 257.011 293.125V294.115C257.011 295.094 256.203 295.841 255.067 295.841ZM262.852 300.95C264.778 300.95 265.799 299.966 266.327 298.459L269.954 288.131L267.214 288.119L265.264 294.972H265.167L263.235 288.119H260.513L263.861 297.718L263.709 298.113C263.369 298.988 262.718 299.03 261.807 298.751L261.224 300.683C261.595 300.841 262.196 300.95 262.852 300.95ZM277.431 297.451L278.355 294.614H282.845L283.768 297.451H286.587L282.298 285.008H278.908L274.613 297.451H277.431ZM279.023 292.56L280.554 287.852H280.651L282.182 292.56H279.023ZM291.818 297.633C294.303 297.633 295.864 296.175 295.986 294.03H293.543C293.391 295.027 292.735 295.586 291.848 295.586C290.639 295.586 289.856 294.571 289.856 292.785C289.856 291.023 290.645 290.015 291.848 290.015C292.796 290.015 293.404 290.64 293.543 291.57H295.986C295.876 289.413 294.242 287.998 291.806 287.998C288.975 287.998 287.225 289.96 287.225 292.821C287.225 295.659 288.944 297.633 291.818 297.633ZM301.859 297.633C304.344 297.633 305.905 296.175 306.027 294.03H303.584C303.433 295.027 302.776 295.586 301.889 295.586C300.68 295.586 299.897 294.571 299.897 292.785C299.897 291.023 300.686 290.015 301.889 290.015C302.837 290.015 303.445 290.64 303.584 291.57H306.027C305.917 289.413 304.283 287.998 301.847 287.998C299.016 287.998 297.266 289.96 297.266 292.821C297.266 295.659 298.985 297.633 301.859 297.633ZM311.9 297.633C314.731 297.633 316.493 295.695 316.493 292.821C316.493 289.93 314.731 287.998 311.9 287.998C309.069 287.998 307.307 289.93 307.307 292.821C307.307 295.695 309.069 297.633 311.9 297.633ZM311.912 295.628C310.606 295.628 309.938 294.431 309.938 292.803C309.938 291.175 310.606 289.972 311.912 289.972C313.194 289.972 313.862 291.175 313.862 292.803C313.862 294.431 313.194 295.628 311.912 295.628ZM324.16 293.478C324.166 294.729 323.31 295.385 322.38 295.385C321.402 295.385 320.77 294.699 320.764 293.599V288.119H318.176V294.061C318.182 296.242 319.458 297.572 321.335 297.572C322.739 297.572 323.747 296.849 324.166 295.756H324.263V297.451H326.748V288.119H324.16V293.478ZM331.407 292.056C331.413 290.853 332.129 290.148 333.174 290.148C334.213 290.148 334.839 290.829 334.833 291.971V297.451H337.421V291.509C337.421 289.334 336.145 287.998 334.201 287.998C332.816 287.998 331.814 288.678 331.394 289.765H331.285V288.119H328.818V297.451H331.407V292.056ZM344.424 288.119H342.669V285.883H340.081V288.119H338.805V290.063H340.081V294.923C340.068 296.752 341.314 297.657 343.191 297.578C343.859 297.554 344.333 297.42 344.595 297.335L344.188 295.409C344.06 295.434 343.787 295.495 343.544 295.495C343.027 295.495 342.669 295.3 342.669 294.583V290.063H344.424V288.119Z" fill="#1E1E20"/>
<path d="M175.237 320.335H176.528V315.565H182.215V320.335H183.506V309.67H182.215V314.42H176.528V309.67H175.237V320.335ZM189.175 320.502C191.341 320.502 192.799 318.856 192.799 316.378C192.799 313.878 191.341 312.232 189.175 312.232C187.008 312.232 185.55 313.878 185.55 316.378C185.55 318.856 187.008 320.502 189.175 320.502ZM189.175 319.398C187.529 319.398 186.779 317.981 186.779 316.378C186.779 314.774 187.529 313.336 189.175 313.336C190.82 313.336 191.57 314.774 191.57 316.378C191.57 317.981 190.82 319.398 189.175 319.398ZM195.904 309.67H194.675V320.335H195.904V309.67ZM201.175 320.502C202.716 320.502 203.237 319.544 203.508 319.106H203.654V320.335H204.841V309.67H203.612V313.607H203.508C203.237 313.191 202.758 312.232 201.196 312.232C199.175 312.232 197.78 313.836 197.78 316.357C197.78 318.898 199.175 320.502 201.175 320.502ZM201.342 319.398C199.8 319.398 199.009 318.044 199.009 316.336C199.009 314.649 199.779 313.336 201.342 313.336C202.841 313.336 203.633 314.545 203.633 316.336C203.633 318.148 202.821 319.398 201.342 319.398ZM213.741 320.523C215.136 320.523 215.865 319.773 216.115 319.252H216.178V320.335H217.407V315.065C217.407 312.524 215.47 312.232 214.449 312.232C213.241 312.232 211.866 312.649 211.241 314.107L212.408 314.524C212.678 313.94 213.319 313.316 214.491 313.316C215.621 313.316 216.178 313.914 216.178 314.94V314.982C216.178 315.576 215.574 315.524 214.116 315.711C212.631 315.904 211.012 316.232 211.012 318.065C211.012 319.627 212.22 320.523 213.741 320.523ZM213.928 319.419C212.949 319.419 212.241 318.981 212.241 318.127C212.241 317.19 213.095 316.898 214.053 316.773C214.574 316.711 215.969 316.565 216.178 316.315V317.44C216.178 318.44 215.386 319.419 213.928 319.419ZM220.879 309.67H219.65V320.335H220.879V309.67ZM224.359 309.67H223.13V320.335H224.359V309.67ZM230.734 323.335H231.963V319.106H232.067C232.338 319.544 232.859 320.502 234.4 320.502C236.4 320.502 237.795 318.898 237.795 316.357C237.795 313.836 236.4 312.232 234.379 312.232C232.817 312.232 232.338 313.191 232.067 313.607H231.921V312.337H230.734V323.335ZM231.942 316.336C231.942 314.545 232.734 313.336 234.233 313.336C235.796 313.336 236.566 314.649 236.566 316.336C236.566 318.044 235.775 319.398 234.233 319.398C232.754 319.398 231.942 318.148 231.942 316.336ZM242.024 320.523C243.419 320.523 244.148 319.773 244.398 319.252H244.461V320.335H245.69V315.065C245.69 312.524 243.753 312.232 242.732 312.232C241.524 312.232 240.149 312.649 239.524 314.107L240.691 314.524C240.961 313.94 241.602 313.316 242.774 313.316C243.904 313.316 244.461 313.914 244.461 314.94V314.982C244.461 315.576 243.857 315.524 242.399 315.711C240.914 315.904 239.295 316.232 239.295 318.065C239.295 319.627 240.503 320.523 242.024 320.523ZM242.211 319.419C241.232 319.419 240.524 318.981 240.524 318.127C240.524 317.19 241.378 316.898 242.336 316.773C242.857 316.711 244.252 316.565 244.461 316.315V317.44C244.461 318.44 243.669 319.419 242.211 319.419ZM248.438 323.335C249.547 323.335 250.328 322.746 250.792 321.502L254.197 312.357L252.854 312.337L250.646 318.71H250.563L248.355 312.337H247.021L249.979 320.377L249.75 321.002C249.302 322.22 248.75 322.335 247.855 322.106L247.542 323.189C247.667 323.251 248.021 323.335 248.438 323.335ZM255.823 320.335H257.052V315.336C257.052 314.164 257.906 313.336 258.865 313.336C259.797 313.336 260.448 313.946 260.448 314.857V320.335H261.697V315.128C261.697 314.097 262.343 313.336 263.468 313.336C264.343 313.336 265.093 313.8 265.093 314.982V320.335H266.322V314.982C266.322 313.102 265.311 312.232 263.885 312.232C262.739 312.232 261.9 312.758 261.489 313.586H261.406C261.01 312.732 260.312 312.232 259.26 312.232C258.219 312.232 257.448 312.732 257.115 313.586H257.011V312.337H255.823V320.335ZM271.922 320.502C273.547 320.502 274.734 319.689 275.109 318.481L273.922 318.148C273.609 318.981 272.886 319.398 271.922 319.398C270.48 319.398 269.485 318.466 269.428 316.752H275.234V316.232C275.234 313.253 273.464 312.232 271.797 312.232C269.631 312.232 268.194 313.94 268.194 316.398C268.194 318.856 269.61 320.502 271.922 320.502ZM269.428 315.69C269.511 314.446 270.391 313.336 271.797 313.336C273.13 313.336 273.984 314.336 273.984 315.69H269.428ZM278.333 315.524C278.333 314.128 279.197 313.336 280.374 313.336C281.514 313.336 282.207 314.081 282.207 315.336V320.335H283.436V315.253C283.436 313.211 282.348 312.232 280.728 312.232C279.52 312.232 278.77 312.774 278.395 313.586H278.291V312.337H277.104V320.335H278.333V315.524ZM289.16 312.337H287.452V310.42H286.223V312.337H285.015V313.378H286.223V318.377C286.223 319.773 287.348 320.439 288.389 320.439C288.848 320.439 289.139 320.356 289.306 320.294L289.056 319.19C288.952 319.21 288.785 319.252 288.514 319.252C287.973 319.252 287.452 319.085 287.452 318.044V313.378H289.16V312.337ZM296.531 314.128C296.146 312.993 295.282 312.232 293.698 312.232C292.011 312.232 290.761 313.191 290.761 314.545C290.761 315.648 291.418 316.388 292.886 316.732L294.219 317.044C295.026 317.232 295.407 317.617 295.407 318.169C295.407 318.856 294.677 319.419 293.532 319.419C292.527 319.419 291.897 318.986 291.678 318.127L290.512 318.419C290.798 319.778 291.918 320.502 293.553 320.502C295.412 320.502 296.677 319.486 296.677 318.106C296.677 316.992 295.979 316.289 294.553 315.94L293.365 315.648C292.417 315.414 291.99 315.097 291.99 314.482C291.99 313.795 292.719 313.295 293.698 313.295C294.771 313.295 295.214 313.888 295.427 314.44L296.531 314.128ZM309.192 312.337H307.859L305.651 318.71H305.568L303.36 312.337H302.027L304.984 320.335H306.234L309.192 312.337ZM310.814 320.335H312.043V312.337H310.814V320.335ZM311.439 311.003C311.918 311.003 312.314 310.629 312.314 310.17C312.314 309.712 311.918 309.337 311.439 309.337C310.96 309.337 310.564 309.712 310.564 310.17C310.564 310.629 310.96 311.003 311.439 311.003ZM316.648 320.523C318.043 320.523 318.772 319.773 319.022 319.252H319.085V320.335H320.314V315.065C320.314 312.524 318.377 312.232 317.356 312.232C316.148 312.232 314.773 312.649 314.148 314.107L315.315 314.524C315.585 313.94 316.226 313.316 317.398 313.316C318.528 313.316 319.085 313.914 319.085 314.94V314.982C319.085 315.576 318.481 315.524 317.023 315.711C315.539 315.904 313.919 316.232 313.919 318.065C313.919 319.627 315.127 320.523 316.648 320.523ZM316.835 319.419C315.856 319.419 315.148 318.981 315.148 318.127C315.148 317.19 316.002 316.898 316.96 316.773C317.481 316.711 318.877 316.565 319.085 316.315V317.44C319.085 318.44 318.293 319.419 316.835 319.419ZM330.16 312.337H328.452V310.42H327.223V312.337H326.015V313.378H327.223V318.377C327.223 319.773 328.348 320.439 329.389 320.439C329.847 320.439 330.139 320.356 330.306 320.294L330.056 319.19C329.951 319.21 329.785 319.252 329.514 319.252C328.972 319.252 328.452 319.085 328.452 318.044V313.378H330.16V312.337ZM333.409 315.524C333.409 314.128 334.3 313.336 335.513 313.336C336.669 313.336 337.367 314.065 337.367 315.336V320.335H338.596V315.253C338.596 313.196 337.502 312.232 335.867 312.232C334.607 312.232 333.888 312.758 333.513 313.586H333.409V309.67H332.18V320.335H333.409V315.524ZM344.198 320.502C345.822 320.502 347.01 319.689 347.385 318.481L346.197 318.148C345.885 318.981 345.161 319.398 344.198 319.398C342.755 319.398 341.761 318.466 341.703 316.752H347.51V316.232C347.51 313.253 345.739 312.232 344.073 312.232C341.906 312.232 340.469 313.94 340.469 316.398C340.469 318.856 341.886 320.502 344.198 320.502ZM341.703 315.69C341.787 314.446 342.667 313.336 344.073 313.336C345.406 313.336 346.26 314.336 346.26 315.69H341.703ZM355.857 320.523C357.253 320.523 357.982 319.773 358.232 319.252H358.294V320.335H359.523V315.065C359.523 312.524 357.586 312.232 356.565 312.232C355.357 312.232 353.983 312.649 353.358 314.107L354.524 314.524C354.795 313.94 355.435 313.316 356.607 313.316C357.737 313.316 358.294 313.914 358.294 314.94V314.982C358.294 315.576 357.69 315.524 356.232 315.711C354.748 315.904 353.129 316.232 353.129 318.065C353.129 319.627 354.337 320.523 355.857 320.523ZM356.045 319.419C355.066 319.419 354.357 318.981 354.357 318.127C354.357 317.19 355.212 316.898 356.17 316.773C356.69 316.711 358.086 316.565 358.294 316.315V317.44C358.294 318.44 357.503 319.419 356.045 319.419ZM361.766 323.335H362.995V319.106H363.1C363.37 319.544 363.891 320.502 365.432 320.502C367.432 320.502 368.828 318.898 368.828 316.357C368.828 313.836 367.432 312.232 365.412 312.232C363.849 312.232 363.37 313.191 363.1 313.607H362.954V312.337H361.766V323.335ZM362.975 316.336C362.975 314.545 363.766 313.336 365.266 313.336C366.828 313.336 367.599 314.649 367.599 316.336C367.599 318.044 366.807 319.398 365.266 319.398C363.787 319.398 362.975 318.148 362.975 316.336ZM370.702 323.335H371.931V319.106H372.035C372.306 319.544 372.827 320.502 374.368 320.502C376.368 320.502 377.764 318.898 377.764 316.357C377.764 313.836 376.368 312.232 374.348 312.232C372.785 312.232 372.306 313.191 372.035 313.607H371.89V312.337H370.702V323.335ZM371.911 316.336C371.911 314.545 372.702 313.336 374.202 313.336C375.764 313.336 376.535 314.649 376.535 316.336C376.535 318.044 375.743 319.398 374.202 319.398C372.723 319.398 371.911 318.148 371.911 316.336Z" fill="#ACACB0" fill-opacity="0.8"/>
<g clip-path="url(#clip2_315_10663)">
<path d="M451.345 314.279C444.596 314.279 439.125 308.808 439.125 302.059C439.125 295.309 444.596 289.838 451.345 289.838C458.094 289.838 463.565 295.309 463.565 302.059C463.565 308.808 458.094 314.279 451.345 314.279ZM450.127 306.947L458.766 298.306L457.039 296.578L450.127 303.491L446.67 300.034L444.942 301.762L450.127 306.947Z" fill="#14B082"/>
</g>
</g>
<g filter="url(#filter1_d_315_10663)">
<rect x="400" y="87" width="216.205" height="102" rx="8.71795" fill="white"/>
<path d="M425.87 164.514H424.795C424.732 164.205 424.62 163.933 424.461 163.699C424.305 163.465 424.115 163.269 423.889 163.11C423.667 162.948 423.42 162.827 423.148 162.746C422.877 162.665 422.593 162.624 422.299 162.624C421.761 162.624 421.274 162.76 420.838 163.032C420.405 163.303 420.059 163.704 419.802 164.232C419.548 164.761 419.421 165.41 419.421 166.178C419.421 166.947 419.548 167.596 419.802 168.125C420.059 168.653 420.405 169.053 420.838 169.325C421.274 169.597 421.761 169.733 422.299 169.733C422.593 169.733 422.877 169.692 423.148 169.611C423.42 169.53 423.667 169.41 423.889 169.251C424.115 169.09 424.305 168.892 424.461 168.658C424.62 168.421 424.732 168.149 424.795 167.843H425.87C425.789 168.296 425.642 168.702 425.428 169.061C425.214 169.419 424.948 169.724 424.63 169.975C424.313 170.224 423.956 170.413 423.56 170.543C423.167 170.673 422.746 170.738 422.299 170.738C421.542 170.738 420.868 170.553 420.279 170.183C419.689 169.813 419.226 169.288 418.888 168.606C418.55 167.924 418.38 167.115 418.38 166.178C418.38 165.242 418.55 164.433 418.888 163.751C419.226 163.069 419.689 162.544 420.279 162.174C420.868 161.804 421.542 161.619 422.299 161.619C422.746 161.619 423.167 161.684 423.56 161.814C423.956 161.944 424.313 162.135 424.63 162.386C424.948 162.635 425.214 162.938 425.428 163.296C425.642 163.652 425.789 164.058 425.87 164.514ZM430.173 170.755C429.572 170.755 429.044 170.612 428.591 170.326C428.14 170.04 427.788 169.64 427.533 169.126C427.282 168.611 427.156 168.01 427.156 167.323C427.156 166.629 427.282 166.024 427.533 165.507C427.788 164.989 428.14 164.588 428.591 164.302C429.044 164.016 429.572 163.873 430.173 163.873C430.774 163.873 431.3 164.016 431.75 164.302C432.204 164.588 432.557 164.989 432.808 165.507C433.062 166.024 433.189 166.629 433.189 167.323C433.189 168.01 433.062 168.611 432.808 169.126C432.557 169.64 432.204 170.04 431.75 170.326C431.3 170.612 430.774 170.755 430.173 170.755ZM430.173 169.837C430.629 169.837 431.005 169.72 431.3 169.485C431.594 169.251 431.813 168.944 431.954 168.562C432.096 168.181 432.167 167.768 432.167 167.323C432.167 166.878 432.096 166.463 431.954 166.079C431.813 165.694 431.594 165.384 431.3 165.147C431.005 164.91 430.629 164.792 430.173 164.792C429.716 164.792 429.341 164.91 429.046 165.147C428.751 165.384 428.533 165.694 428.391 166.079C428.25 166.463 428.179 166.878 428.179 167.323C428.179 167.768 428.25 168.181 428.391 168.562C428.533 168.944 428.751 169.251 429.046 169.485C429.341 169.72 429.716 169.837 430.173 169.837ZM434.751 170.617V163.959H435.739V165H435.826C435.964 164.644 436.188 164.368 436.497 164.172C436.807 163.972 437.178 163.873 437.611 163.873C438.051 163.873 438.416 163.972 438.708 164.172C439.003 164.368 439.232 164.644 439.397 165H439.466C439.637 164.656 439.893 164.383 440.234 164.18C440.575 163.975 440.983 163.873 441.46 163.873C442.055 163.873 442.542 164.059 442.921 164.432C443.299 164.802 443.489 165.378 443.489 166.161V170.617H442.466V166.161C442.466 165.67 442.331 165.319 442.063 165.108C441.794 164.897 441.477 164.792 441.113 164.792C440.645 164.792 440.283 164.933 440.026 165.216C439.768 165.497 439.64 165.852 439.64 166.282V170.617H438.6V166.057C438.6 165.679 438.477 165.374 438.231 165.143C437.986 164.909 437.669 164.792 437.282 164.792C437.016 164.792 436.768 164.862 436.536 165.004C436.308 165.145 436.123 165.342 435.982 165.593C435.843 165.842 435.774 166.129 435.774 166.456V170.617H434.751ZM445.359 173.113V163.959H446.347V165.017H446.468C446.543 164.901 446.647 164.754 446.78 164.575C446.916 164.393 447.11 164.231 447.361 164.089C447.615 163.945 447.959 163.873 448.393 163.873C448.953 163.873 449.447 164.013 449.875 164.293C450.303 164.573 450.636 164.971 450.876 165.485C451.116 165.999 451.236 166.606 451.236 167.305C451.236 168.01 451.116 168.622 450.876 169.139C450.636 169.653 450.304 170.052 449.879 170.335C449.455 170.615 448.965 170.755 448.41 170.755C447.982 170.755 447.64 170.685 447.383 170.543C447.126 170.399 446.928 170.235 446.789 170.053C446.65 169.868 446.543 169.715 446.468 169.594H446.382V173.113H445.359ZM446.364 167.288C446.364 167.791 446.438 168.234 446.585 168.619C446.733 169 446.948 169.299 447.231 169.516C447.514 169.73 447.861 169.837 448.271 169.837C448.699 169.837 449.056 169.724 449.342 169.498C449.631 169.27 449.848 168.964 449.992 168.58C450.139 168.192 450.213 167.762 450.213 167.288C450.213 166.82 450.141 166.398 449.996 166.022C449.855 165.644 449.64 165.345 449.351 165.125C449.065 164.903 448.705 164.792 448.271 164.792C447.855 164.792 447.506 164.897 447.222 165.108C446.939 165.316 446.725 165.608 446.581 165.983C446.437 166.356 446.364 166.791 446.364 167.288ZM454.755 170.773C454.333 170.773 453.951 170.693 453.607 170.534C453.263 170.373 452.99 170.14 452.788 169.837C452.585 169.53 452.484 169.16 452.484 168.727C452.484 168.346 452.559 168.036 452.71 167.799C452.86 167.56 453.061 167.372 453.312 167.236C453.563 167.1 453.841 166.999 454.144 166.933C454.45 166.863 454.758 166.808 455.067 166.768C455.472 166.716 455.8 166.677 456.051 166.651C456.306 166.622 456.49 166.574 456.606 166.508C456.725 166.441 456.784 166.326 456.784 166.161V166.126C456.784 165.699 456.667 165.367 456.433 165.13C456.202 164.893 455.85 164.774 455.379 164.774C454.891 164.774 454.508 164.881 454.231 165.095C453.954 165.309 453.758 165.537 453.646 165.78L452.675 165.433C452.848 165.028 453.079 164.714 453.368 164.488C453.66 164.26 453.978 164.101 454.322 164.011C454.669 163.919 455.01 163.873 455.345 163.873C455.559 163.873 455.804 163.899 456.082 163.951C456.362 164 456.632 164.102 456.892 164.258C457.155 164.414 457.373 164.65 457.547 164.965C457.72 165.28 457.807 165.702 457.807 166.23V170.617H456.784V169.715H456.732C456.662 169.86 456.547 170.014 456.385 170.179C456.223 170.344 456.008 170.484 455.739 170.599C455.47 170.715 455.143 170.773 454.755 170.773ZM454.911 169.854C455.316 169.854 455.657 169.774 455.934 169.615C456.215 169.457 456.425 169.251 456.567 169C456.712 168.749 456.784 168.484 456.784 168.207V167.271C456.74 167.323 456.645 167.37 456.498 167.414C456.353 167.454 456.186 167.49 455.995 167.522C455.807 167.551 455.624 167.577 455.444 167.6C455.268 167.62 455.125 167.638 455.015 167.652C454.75 167.687 454.501 167.743 454.27 167.821C454.042 167.896 453.857 168.01 453.715 168.164C453.576 168.314 453.507 168.519 453.507 168.779C453.507 169.134 453.639 169.403 453.901 169.585C454.167 169.764 454.504 169.854 454.911 169.854ZM459.674 170.617V163.959H460.662V164.965H460.731C460.852 164.635 461.072 164.368 461.39 164.163C461.708 163.958 462.066 163.855 462.465 163.855C462.54 163.855 462.634 163.857 462.747 163.86C462.859 163.863 462.944 163.867 463.002 163.873V164.913C462.968 164.904 462.888 164.891 462.764 164.874C462.643 164.854 462.514 164.844 462.378 164.844C462.054 164.844 461.766 164.911 461.511 165.047C461.26 165.18 461.061 165.365 460.913 165.602C460.769 165.836 460.696 166.103 460.696 166.404V170.617H459.674ZM466.803 170.755C466.162 170.755 465.609 170.614 465.143 170.331C464.681 170.045 464.324 169.646 464.073 169.134C463.824 168.62 463.7 168.022 463.7 167.34C463.7 166.658 463.824 166.057 464.073 165.537C464.324 165.014 464.674 164.607 465.122 164.315C465.572 164.02 466.098 163.873 466.699 163.873C467.046 163.873 467.388 163.93 467.727 164.046C468.065 164.162 468.372 164.349 468.65 164.609C468.927 164.867 469.148 165.208 469.313 165.632C469.478 166.057 469.56 166.58 469.56 167.201V167.635H464.428V166.751H468.52C468.52 166.375 468.445 166.04 468.294 165.745C468.147 165.45 467.936 165.218 467.662 165.047C467.39 164.877 467.069 164.792 466.699 164.792C466.292 164.792 465.939 164.893 465.642 165.095C465.347 165.294 465.12 165.554 464.961 165.875C464.802 166.196 464.723 166.54 464.723 166.907V167.496C464.723 167.999 464.81 168.425 464.983 168.775C465.159 169.121 465.403 169.386 465.715 169.568C466.028 169.747 466.39 169.837 466.803 169.837C467.072 169.837 467.315 169.799 467.531 169.724C467.751 169.646 467.94 169.53 468.099 169.377C468.258 169.221 468.381 169.027 468.468 168.796L469.456 169.074C469.352 169.409 469.177 169.704 468.931 169.958C468.686 170.209 468.382 170.406 468.021 170.547C467.66 170.686 467.254 170.755 466.803 170.755ZM473.63 170.755C473.075 170.755 472.585 170.615 472.16 170.335C471.736 170.052 471.403 169.653 471.164 169.139C470.924 168.622 470.804 168.01 470.804 167.305C470.804 166.606 470.924 165.999 471.164 165.485C471.403 164.971 471.737 164.573 472.165 164.293C472.592 164.013 473.087 163.873 473.647 163.873C474.08 163.873 474.423 163.945 474.674 164.089C474.929 164.231 475.122 164.393 475.255 164.575C475.391 164.754 475.496 164.901 475.571 165.017H475.658V161.74H476.681V170.617H475.693V169.594H475.571C475.496 169.715 475.389 169.868 475.251 170.053C475.112 170.235 474.914 170.399 474.657 170.543C474.4 170.685 474.057 170.755 473.63 170.755ZM473.768 169.837C474.179 169.837 474.525 169.73 474.809 169.516C475.092 169.299 475.307 169 475.454 168.619C475.602 168.234 475.675 167.791 475.675 167.288C475.675 166.791 475.603 166.356 475.459 165.983C475.314 165.608 475.1 165.316 474.817 165.108C474.534 164.897 474.185 164.792 473.768 164.792C473.335 164.792 472.974 164.903 472.685 165.125C472.399 165.345 472.184 165.644 472.039 166.022C471.897 166.398 471.827 166.82 471.827 167.288C471.827 167.762 471.899 168.192 472.043 168.58C472.191 168.964 472.407 169.27 472.694 169.498C472.982 169.724 473.341 169.837 473.768 169.837ZM485.024 163.959V164.826H481.574V163.959H485.024ZM482.58 162.364H483.603V168.71C483.603 168.999 483.645 169.215 483.728 169.36C483.815 169.501 483.925 169.597 484.058 169.646C484.194 169.692 484.337 169.715 484.487 169.715C484.6 169.715 484.692 169.709 484.764 169.698C484.837 169.683 484.894 169.672 484.938 169.663L485.146 170.582C485.076 170.608 484.98 170.634 484.855 170.66C484.731 170.689 484.574 170.703 484.383 170.703C484.094 170.703 483.811 170.641 483.533 170.517C483.259 170.393 483.031 170.204 482.849 169.949C482.669 169.695 482.58 169.374 482.58 168.987V162.364ZM489.196 170.755C488.595 170.755 488.068 170.612 487.614 170.326C487.163 170.04 486.811 169.64 486.556 169.126C486.305 168.611 486.179 168.01 486.179 167.323C486.179 166.629 486.305 166.024 486.556 165.507C486.811 164.989 487.163 164.588 487.614 164.302C488.068 164.016 488.595 163.873 489.196 163.873C489.797 163.873 490.323 164.016 490.774 164.302C491.227 164.588 491.58 164.989 491.831 165.507C492.086 166.024 492.213 166.629 492.213 167.323C492.213 168.01 492.086 168.611 491.831 169.126C491.58 169.64 491.227 170.04 490.774 170.326C490.323 170.612 489.797 170.755 489.196 170.755ZM489.196 169.837C489.653 169.837 490.028 169.72 490.323 169.485C490.618 169.251 490.836 168.944 490.977 168.562C491.119 168.181 491.19 167.768 491.19 167.323C491.19 166.878 491.119 166.463 490.977 166.079C490.836 165.694 490.618 165.384 490.323 165.147C490.028 164.91 489.653 164.792 489.196 164.792C488.739 164.792 488.364 164.91 488.069 165.147C487.774 165.384 487.556 165.694 487.415 166.079C487.273 166.463 487.202 166.878 487.202 167.323C487.202 167.768 487.273 168.181 487.415 168.562C487.556 168.944 487.774 169.251 488.069 169.485C488.364 169.72 488.739 169.837 489.196 169.837ZM499.807 171.726V160.631H500.518V171.726H499.807ZM502.2 163.959C502.148 163.52 501.937 163.179 501.567 162.936C501.197 162.694 500.743 162.572 500.206 162.572C499.813 162.572 499.469 162.636 499.174 162.763C498.883 162.89 498.654 163.065 498.49 163.288C498.328 163.51 498.247 163.763 498.247 164.046C498.247 164.283 498.303 164.487 498.416 164.657C498.532 164.825 498.679 164.965 498.858 165.078C499.037 165.187 499.225 165.278 499.422 165.351C499.618 165.42 499.799 165.476 499.963 165.52L500.865 165.762C501.096 165.823 501.353 165.907 501.636 166.014C501.922 166.121 502.195 166.267 502.455 166.452C502.718 166.634 502.935 166.868 503.106 167.154C503.276 167.44 503.361 167.791 503.361 168.207C503.361 168.687 503.236 169.12 502.984 169.507C502.736 169.894 502.372 170.202 501.892 170.43C501.415 170.659 500.836 170.773 500.154 170.773C499.518 170.773 498.968 170.67 498.503 170.465C498.04 170.26 497.676 169.974 497.41 169.607C497.147 169.24 496.999 168.814 496.964 168.328H498.074C498.102 168.663 498.215 168.941 498.412 169.16C498.611 169.377 498.862 169.539 499.166 169.646C499.472 169.75 499.801 169.802 500.154 169.802C500.564 169.802 500.933 169.735 501.259 169.602C501.586 169.467 501.844 169.279 502.035 169.039C502.226 168.796 502.321 168.513 502.321 168.19C502.321 167.895 502.239 167.655 502.074 167.47C501.909 167.285 501.693 167.135 501.424 167.019C501.155 166.904 500.865 166.803 500.553 166.716L499.461 166.404C498.767 166.204 498.218 165.92 497.814 165.55C497.409 165.18 497.207 164.696 497.207 164.098C497.207 163.601 497.341 163.168 497.61 162.798C497.881 162.425 498.245 162.136 498.702 161.931C499.161 161.723 499.674 161.619 500.241 161.619C500.813 161.619 501.321 161.721 501.766 161.927C502.211 162.129 502.564 162.406 502.824 162.759C503.087 163.111 503.225 163.511 503.24 163.959H502.2ZM507.816 170.738C507.221 170.738 506.695 170.633 506.238 170.422C505.784 170.208 505.431 169.915 505.176 169.542C504.922 169.166 504.796 168.739 504.799 168.259C504.796 167.883 504.87 167.537 505.02 167.219C505.17 166.898 505.376 166.631 505.636 166.417C505.899 166.2 506.192 166.063 506.516 166.005V165.953C506.091 165.843 505.753 165.605 505.501 165.238C505.25 164.868 505.126 164.448 505.129 163.977C505.126 163.526 505.24 163.123 505.471 162.767C505.702 162.412 506.02 162.132 506.425 161.927C506.832 161.721 507.296 161.619 507.816 161.619C508.33 161.619 508.79 161.721 509.194 161.927C509.599 162.132 509.916 162.412 510.148 162.767C510.382 163.123 510.5 163.526 510.503 163.977C510.5 164.448 510.372 164.868 510.117 165.238C509.866 165.605 509.532 165.843 509.116 165.953V166.005C509.437 166.063 509.726 166.2 509.983 166.417C510.24 166.631 510.445 166.898 510.598 167.219C510.751 167.537 510.83 167.883 510.832 168.259C510.83 168.739 510.699 169.166 510.442 169.542C510.188 169.915 509.834 170.208 509.38 170.422C508.93 170.633 508.408 170.738 507.816 170.738ZM507.816 169.785C508.217 169.785 508.564 169.72 508.856 169.589C509.148 169.459 509.373 169.276 509.532 169.039C509.691 168.802 509.772 168.525 509.775 168.207C509.772 167.872 509.685 167.576 509.515 167.318C509.344 167.061 509.112 166.859 508.817 166.712C508.525 166.564 508.191 166.491 507.816 166.491C507.437 166.491 507.099 166.564 506.802 166.712C506.507 166.859 506.274 167.061 506.104 167.318C505.936 167.576 505.854 167.872 505.857 168.207C505.854 168.525 505.93 168.802 506.086 169.039C506.245 169.276 506.472 169.459 506.767 169.589C507.062 169.72 507.411 169.785 507.816 169.785ZM507.816 165.572C508.134 165.572 508.415 165.508 508.661 165.381C508.909 165.254 509.104 165.076 509.246 164.848C509.388 164.62 509.46 164.352 509.463 164.046C509.46 163.746 509.389 163.484 509.25 163.262C509.112 163.036 508.92 162.863 508.674 162.741C508.428 162.617 508.142 162.555 507.816 162.555C507.483 162.555 507.193 162.617 506.945 162.741C506.696 162.863 506.504 163.036 506.368 163.262C506.232 163.484 506.166 163.746 506.169 164.046C506.166 164.352 506.234 164.62 506.372 164.848C506.514 165.076 506.709 165.254 506.958 165.381C507.206 165.508 507.492 165.572 507.816 165.572ZM515.319 161.619C515.683 161.622 516.048 161.691 516.412 161.827C516.776 161.963 517.108 162.188 517.408 162.503C517.709 162.815 517.95 163.241 518.132 163.782C518.314 164.322 518.405 165 518.405 165.814C518.405 166.603 518.33 167.304 518.18 167.916C518.033 168.526 517.819 169.04 517.539 169.459C517.261 169.878 516.923 170.196 516.524 170.413C516.128 170.63 515.681 170.738 515.181 170.738C514.684 170.738 514.24 170.64 513.85 170.443C513.463 170.244 513.145 169.968 512.897 169.615C512.651 169.26 512.493 168.848 512.424 168.38H513.482C513.577 168.788 513.766 169.124 514.049 169.39C514.336 169.653 514.713 169.785 515.181 169.785C515.865 169.785 516.406 169.485 516.802 168.887C517.2 168.289 517.4 167.444 517.4 166.352H517.33C517.169 166.595 516.976 166.804 516.754 166.98C516.532 167.157 516.284 167.292 516.013 167.388C515.741 167.483 515.452 167.531 515.146 167.531C514.637 167.531 514.171 167.405 513.746 167.154C513.324 166.899 512.986 166.551 512.732 166.109C512.48 165.664 512.355 165.156 512.355 164.583C512.355 164.04 512.476 163.543 512.719 163.093C512.964 162.639 513.308 162.278 513.75 162.009C514.195 161.74 514.718 161.61 515.319 161.619ZM515.319 162.572C514.955 162.572 514.627 162.663 514.336 162.845C514.047 163.025 513.817 163.267 513.646 163.574C513.479 163.877 513.395 164.214 513.395 164.583C513.395 164.953 513.476 165.29 513.638 165.593C513.802 165.894 514.026 166.134 514.31 166.313C514.596 166.489 514.921 166.577 515.285 166.577C515.559 166.577 515.815 166.524 516.052 166.417C516.289 166.307 516.495 166.158 516.672 165.97C516.851 165.78 516.991 165.564 517.092 165.325C517.193 165.082 517.244 164.829 517.244 164.566C517.244 164.219 517.16 163.894 516.992 163.591C516.828 163.288 516.599 163.042 516.308 162.854C516.019 162.666 515.689 162.572 515.319 162.572ZM523.005 170.738C522.352 170.738 521.796 170.56 521.336 170.205C520.877 169.847 520.526 169.328 520.283 168.649C520.04 167.967 519.919 167.144 519.919 166.178C519.919 165.219 520.04 164.4 520.283 163.721C520.529 163.039 520.881 162.519 521.341 162.161C521.803 161.799 522.358 161.619 523.005 161.619C523.652 161.619 524.206 161.799 524.665 162.161C525.127 162.519 525.48 163.039 525.723 163.721C525.968 164.4 526.091 165.219 526.091 166.178C526.091 167.144 525.97 167.967 525.727 168.649C525.484 169.328 525.133 169.847 524.674 170.205C524.214 170.56 523.658 170.738 523.005 170.738ZM523.005 169.785C523.652 169.785 524.155 169.472 524.513 168.848C524.872 168.224 525.051 167.334 525.051 166.178C525.051 165.41 524.968 164.755 524.804 164.215C524.642 163.675 524.408 163.263 524.102 162.98C523.798 162.697 523.433 162.555 523.005 162.555C522.364 162.555 521.862 162.871 521.501 163.504C521.14 164.134 520.959 165.026 520.959 166.178C520.959 166.947 521.04 167.6 521.202 168.138C521.364 168.675 521.596 169.084 521.9 169.364C522.206 169.644 522.574 169.785 523.005 169.785ZM532.211 161.74V170.617H531.188V161.74H532.211ZM536.043 170.773C535.622 170.773 535.239 170.693 534.895 170.534C534.551 170.373 534.278 170.14 534.076 169.837C533.873 169.53 533.772 169.16 533.772 168.727C533.772 168.346 533.847 168.036 533.998 167.799C534.148 167.56 534.349 167.372 534.6 167.236C534.851 167.1 535.129 166.999 535.432 166.933C535.739 166.863 536.046 166.808 536.355 166.768C536.76 166.716 537.088 166.677 537.339 166.651C537.594 166.622 537.779 166.574 537.894 166.508C538.013 166.441 538.072 166.326 538.072 166.161V166.126C538.072 165.699 537.955 165.367 537.721 165.13C537.49 164.893 537.139 164.774 536.668 164.774C536.179 164.774 535.796 164.881 535.519 165.095C535.242 165.309 535.047 165.537 534.934 165.78L533.963 165.433C534.136 165.028 534.368 164.714 534.656 164.488C534.948 164.26 535.266 164.101 535.61 164.011C535.957 163.919 536.298 163.873 536.633 163.873C536.847 163.873 537.092 163.899 537.37 163.951C537.65 164 537.92 164.102 538.18 164.258C538.443 164.414 538.661 164.65 538.835 164.965C539.008 165.28 539.095 165.702 539.095 166.23V170.617H538.072V169.715H538.02C537.95 169.86 537.835 170.014 537.673 170.179C537.511 170.344 537.296 170.484 537.027 170.599C536.759 170.715 536.431 170.773 536.043 170.773ZM536.199 169.854C536.604 169.854 536.945 169.774 537.222 169.615C537.503 169.457 537.714 169.251 537.855 169C538 168.749 538.072 168.484 538.072 168.207V167.271C538.028 167.323 537.933 167.37 537.786 167.414C537.641 167.454 537.474 167.49 537.283 167.522C537.095 167.551 536.912 167.577 536.733 167.6C536.556 167.62 536.413 167.638 536.303 167.652C536.038 167.687 535.789 167.743 535.558 167.821C535.33 167.896 535.145 168.01 535.003 168.164C534.864 168.314 534.795 168.519 534.795 168.779C534.795 169.134 534.927 169.403 535.19 169.585C535.455 169.764 535.792 169.854 536.199 169.854ZM545.677 165.45L544.758 165.71C544.701 165.557 544.615 165.408 544.503 165.264C544.393 165.117 544.243 164.995 544.052 164.9C543.861 164.805 543.617 164.757 543.319 164.757C542.912 164.757 542.573 164.851 542.301 165.039C542.032 165.223 541.898 165.459 541.898 165.745C541.898 165.999 541.99 166.2 542.175 166.348C542.36 166.495 542.649 166.618 543.042 166.716L544.03 166.959C544.625 167.103 545.069 167.324 545.361 167.622C545.653 167.916 545.799 168.296 545.799 168.762C545.799 169.143 545.689 169.484 545.469 169.785C545.253 170.085 544.949 170.322 544.559 170.495C544.169 170.669 543.715 170.755 543.198 170.755C542.519 170.755 541.957 170.608 541.512 170.313C541.067 170.019 540.785 169.588 540.667 169.022L541.638 168.779C541.73 169.137 541.905 169.406 542.162 169.585C542.422 169.764 542.762 169.854 543.181 169.854C543.658 169.854 544.036 169.753 544.316 169.55C544.599 169.345 544.741 169.1 544.741 168.814C544.741 168.583 544.66 168.389 544.498 168.233C544.337 168.074 544.088 167.955 543.753 167.877L542.643 167.617C542.034 167.473 541.586 167.249 541.3 166.946C541.017 166.639 540.875 166.256 540.875 165.797C540.875 165.421 540.98 165.089 541.191 164.8C541.405 164.511 541.696 164.284 542.063 164.12C542.432 163.955 542.851 163.873 543.319 163.873C543.978 163.873 544.495 164.017 544.871 164.306C545.25 164.595 545.518 164.976 545.677 165.45ZM550.234 163.959V164.826H546.784V163.959H550.234ZM547.789 162.364H548.812V168.71C548.812 168.999 548.854 169.215 548.938 169.36C549.024 169.501 549.134 169.597 549.267 169.646C549.403 169.692 549.546 169.715 549.696 169.715C549.809 169.715 549.901 169.709 549.974 169.698C550.046 169.683 550.104 169.672 550.147 169.663L550.355 170.582C550.286 170.608 550.189 170.634 550.065 170.66C549.94 170.689 549.783 170.703 549.592 170.703C549.303 170.703 549.02 170.641 548.743 170.517C548.468 170.393 548.24 170.204 548.058 169.949C547.879 169.695 547.789 169.374 547.789 168.987V162.364ZM555.205 170.617V163.959H556.193V165H556.28C556.419 164.644 556.642 164.368 556.952 164.172C557.261 163.972 557.632 163.873 558.066 163.873C558.505 163.873 558.87 163.972 559.162 164.172C559.457 164.368 559.687 164.644 559.851 165H559.921C560.091 164.656 560.347 164.383 560.688 164.18C561.029 163.975 561.438 163.873 561.914 163.873C562.51 163.873 562.996 164.059 563.375 164.432C563.753 164.802 563.943 165.378 563.943 166.161V170.617H562.92V166.161C562.92 165.67 562.785 165.319 562.517 165.108C562.248 164.897 561.932 164.792 561.568 164.792C561.099 164.792 560.737 164.933 560.48 165.216C560.223 165.497 560.094 165.852 560.094 166.282V170.617H559.054V166.057C559.054 165.679 558.931 165.374 558.685 165.143C558.44 164.909 558.123 164.792 557.736 164.792C557.47 164.792 557.222 164.862 556.991 165.004C556.762 165.145 556.577 165.342 556.436 165.593C556.297 165.842 556.228 166.129 556.228 166.456V170.617H555.205ZM568.517 170.755C567.916 170.755 567.389 170.612 566.935 170.326C566.485 170.04 566.132 169.64 565.878 169.126C565.627 168.611 565.501 168.01 565.501 167.323C565.501 166.629 565.627 166.024 565.878 165.507C566.132 164.989 566.485 164.588 566.935 164.302C567.389 164.016 567.916 163.873 568.517 163.873C569.118 163.873 569.644 164.016 570.095 164.302C570.549 164.588 570.901 164.989 571.153 165.507C571.407 166.024 571.534 166.629 571.534 167.323C571.534 168.01 571.407 168.611 571.153 169.126C570.901 169.64 570.549 170.04 570.095 170.326C569.644 170.612 569.118 170.755 568.517 170.755ZM568.517 169.837C568.974 169.837 569.35 169.72 569.644 169.485C569.939 169.251 570.157 168.944 570.299 168.562C570.44 168.181 570.511 167.768 570.511 167.323C570.511 166.878 570.44 166.463 570.299 166.079C570.157 165.694 569.939 165.384 569.644 165.147C569.35 164.91 568.974 164.792 568.517 164.792C568.061 164.792 567.685 164.91 567.391 165.147C567.096 165.384 566.878 165.694 566.736 166.079C566.595 166.463 566.524 166.878 566.524 167.323C566.524 167.768 566.595 168.181 566.736 168.562C566.878 168.944 567.096 169.251 567.391 169.485C567.685 169.72 568.061 169.837 568.517 169.837ZM574.118 166.612V170.617H573.095V163.959H574.084V165H574.17C574.326 164.661 574.563 164.39 574.881 164.185C575.199 163.977 575.609 163.873 576.112 163.873C576.563 163.873 576.957 163.965 577.295 164.15C577.633 164.332 577.896 164.609 578.084 164.982C578.272 165.352 578.366 165.82 578.366 166.387V170.617H577.343V166.456C577.343 165.933 577.207 165.525 576.936 165.234C576.664 164.939 576.291 164.792 575.817 164.792C575.491 164.792 575.199 164.862 574.942 165.004C574.688 165.145 574.487 165.352 574.339 165.624C574.192 165.895 574.118 166.225 574.118 166.612ZM583.13 163.959V164.826H579.68V163.959H583.13ZM580.686 162.364H581.709V168.71C581.709 168.999 581.751 169.215 581.834 169.36C581.921 169.501 582.031 169.597 582.164 169.646C582.3 169.692 582.443 169.715 582.593 169.715C582.705 169.715 582.798 169.709 582.87 169.698C582.942 169.683 583 169.672 583.044 169.663L583.252 170.582C583.182 170.608 583.085 170.634 582.961 170.66C582.837 170.689 582.679 170.703 582.489 170.703C582.2 170.703 581.917 170.641 581.639 170.517C581.365 170.393 581.137 170.204 580.954 169.949C580.775 169.695 580.686 169.374 580.686 168.987V162.364ZM585.835 166.612V170.617H584.812V161.74H585.835V165H585.921C586.077 164.656 586.312 164.383 586.624 164.18C586.939 163.975 587.358 163.873 587.881 163.873C588.334 163.873 588.731 163.964 589.072 164.146C589.413 164.325 589.678 164.601 589.866 164.974C590.056 165.343 590.152 165.814 590.152 166.387V170.617H589.129V166.456C589.129 165.927 588.992 165.518 588.717 165.229C588.445 164.937 588.068 164.792 587.586 164.792C587.251 164.792 586.95 164.862 586.684 165.004C586.421 165.145 586.213 165.352 586.06 165.624C585.91 165.895 585.835 166.225 585.835 166.612Z" fill="#656575"/>
<g clip-path="url(#clip3_315_10663)">
<path d="M424.84 150.708V128.517H426.262V150.708H424.84ZM428.611 135.842C428.542 135.142 428.244 134.599 427.718 134.212C427.192 133.825 426.479 133.631 425.577 133.631C424.965 133.631 424.447 133.718 424.025 133.891C423.604 134.059 423.28 134.293 423.055 134.593C422.835 134.894 422.725 135.235 422.725 135.616C422.714 135.934 422.78 136.211 422.925 136.448C423.075 136.685 423.28 136.89 423.54 137.064C423.8 137.231 424.101 137.379 424.442 137.506C424.783 137.627 425.147 137.731 425.534 137.818L427.129 138.199C427.903 138.373 428.614 138.604 429.261 138.893C429.908 139.182 430.469 139.537 430.943 139.959C431.417 140.381 431.784 140.878 432.044 141.45C432.31 142.022 432.445 142.678 432.451 143.418C432.445 144.504 432.168 145.446 431.619 146.244C431.076 147.035 430.29 147.651 429.261 148.09C428.238 148.523 427.005 148.74 425.56 148.74C424.127 148.74 422.878 148.521 421.815 148.081C420.758 147.642 419.931 146.992 419.336 146.131C418.746 145.264 418.437 144.192 418.408 142.915H422.04C422.081 143.51 422.251 144.007 422.552 144.406C422.858 144.799 423.266 145.097 423.774 145.299C424.288 145.495 424.869 145.594 425.516 145.594C426.152 145.594 426.704 145.501 427.172 145.316C427.646 145.131 428.013 144.874 428.273 144.545C428.533 144.215 428.663 143.837 428.663 143.409C428.663 143.01 428.545 142.675 428.308 142.404C428.077 142.132 427.736 141.901 427.285 141.71C426.84 141.519 426.294 141.346 425.646 141.19L423.713 140.705C422.217 140.34 421.035 139.771 420.168 138.997C419.301 138.222 418.871 137.179 418.876 135.868C418.871 134.793 419.157 133.854 419.735 133.05C420.318 132.247 421.119 131.62 422.136 131.169C423.153 130.719 424.309 130.493 425.603 130.493C426.921 130.493 428.071 130.719 429.053 131.169C430.041 131.62 430.81 132.247 431.359 133.05C431.908 133.854 432.191 134.784 432.208 135.842H428.611ZM442.595 130.736V148.489H438.842V134.299H438.738L434.672 136.847V133.518L439.067 130.736H442.595ZM449.909 146.062L449.814 147.015C449.739 147.778 449.594 148.538 449.381 149.295C449.173 150.058 448.953 150.748 448.722 151.367C448.496 151.985 448.314 152.47 448.176 152.823H445.783C445.87 152.482 445.988 152.005 446.139 151.393C446.289 150.786 446.43 150.104 446.563 149.347C446.696 148.59 446.78 147.818 446.815 147.032L446.858 146.062H449.909ZM459.241 148.731C457.946 148.731 456.794 148.509 455.782 148.064C454.777 147.613 453.982 146.995 453.398 146.209C452.821 145.417 452.523 144.504 452.506 143.47H456.285C456.308 143.903 456.45 144.285 456.71 144.614C456.976 144.938 457.328 145.189 457.767 145.368C458.207 145.547 458.701 145.637 459.25 145.637C459.822 145.637 460.327 145.536 460.767 145.333C461.206 145.131 461.55 144.851 461.798 144.493C462.047 144.134 462.171 143.721 462.171 143.253C462.171 142.779 462.038 142.36 461.772 141.996C461.512 141.626 461.136 141.337 460.645 141.129C460.16 140.921 459.582 140.817 458.912 140.817H457.256V138.061H458.912C459.478 138.061 459.978 137.962 460.411 137.766C460.85 137.569 461.191 137.298 461.434 136.951C461.677 136.599 461.798 136.188 461.798 135.72C461.798 135.275 461.691 134.885 461.477 134.55C461.269 134.209 460.975 133.943 460.593 133.752C460.218 133.562 459.778 133.466 459.276 133.466C458.767 133.466 458.302 133.559 457.88 133.744C457.458 133.923 457.12 134.18 456.866 134.515C456.612 134.85 456.476 135.243 456.458 135.694H452.861C452.878 134.671 453.17 133.77 453.736 132.99C454.303 132.209 455.066 131.6 456.025 131.161C456.99 130.716 458.079 130.493 459.293 130.493C460.518 130.493 461.59 130.716 462.509 131.161C463.428 131.606 464.141 132.207 464.65 132.964C465.164 133.715 465.419 134.559 465.413 135.495C465.419 136.489 465.109 137.318 464.485 137.983C463.867 138.647 463.061 139.069 462.067 139.248V139.387C463.373 139.555 464.367 140.008 465.049 140.748C465.736 141.482 466.077 142.401 466.072 143.504C466.077 144.516 465.786 145.414 465.196 146.2C464.612 146.986 463.806 147.605 462.778 148.055C461.749 148.506 460.57 148.731 459.241 148.731ZM468.77 148.489V145.784L475.089 139.933C475.626 139.413 476.077 138.945 476.441 138.529C476.811 138.113 477.091 137.705 477.282 137.307C477.473 136.902 477.568 136.466 477.568 135.998C477.568 135.477 477.45 135.03 477.213 134.654C476.976 134.273 476.652 133.981 476.242 133.778C475.832 133.57 475.366 133.466 474.846 133.466C474.303 133.466 473.829 133.576 473.425 133.796C473.02 134.015 472.708 134.33 472.488 134.741C472.269 135.151 472.159 135.639 472.159 136.206H468.596C468.596 135.044 468.859 134.036 469.385 133.18C469.911 132.325 470.648 131.663 471.596 131.195C472.543 130.727 473.636 130.493 474.872 130.493C476.144 130.493 477.25 130.719 478.192 131.169C479.14 131.614 479.877 132.233 480.403 133.024C480.929 133.816 481.192 134.723 481.192 135.746C481.192 136.417 481.059 137.078 480.793 137.731C480.533 138.384 480.068 139.11 479.397 139.907C478.727 140.699 477.782 141.649 476.563 142.759L473.971 145.299V145.42H481.426V148.489H468.77ZM483.495 145.368V142.412L490.907 130.736H493.455V134.827H491.947L487.275 142.222V142.36H497.807V145.368H483.495ZM492.016 148.489V144.467L492.086 143.158V130.736H495.605V148.489H492.016Z" fill="#2E2E3A"/>
<path d="M511.959 146.046V139.032H513.733V146.046H511.959ZM509.339 143.426V141.652H516.353V143.426H509.339ZM518.129 145.808V144.119L522.365 137.447H523.821V139.785H522.959L520.289 144.01V144.089H526.307V145.808H518.129ZM522.999 147.591V145.293L523.038 144.545V137.447H525.049V147.591H522.999ZM528.673 147.72C528.347 147.72 528.066 147.605 527.831 147.373C527.6 147.139 527.485 146.858 527.485 146.531C527.485 146.208 527.6 145.93 527.831 145.699C528.066 145.468 528.347 145.352 528.673 145.352C528.99 145.352 529.268 145.468 529.506 145.699C529.743 145.93 529.862 146.208 529.862 146.531C529.862 146.749 529.806 146.949 529.694 147.131C529.585 147.309 529.441 147.453 529.263 147.562C529.085 147.667 528.888 147.72 528.673 147.72ZM535.073 147.73C534.373 147.73 533.749 147.601 533.2 147.344C532.656 147.086 532.223 146.731 531.903 146.279C531.582 145.826 531.416 145.308 531.402 144.723H533.483C533.506 145.116 533.671 145.435 533.978 145.679C534.285 145.924 534.65 146.046 535.073 146.046C535.41 146.046 535.707 145.972 535.964 145.823C536.225 145.671 536.428 145.461 536.574 145.194C536.722 144.923 536.797 144.613 536.797 144.263C536.797 143.906 536.721 143.592 536.569 143.321C536.42 143.051 536.214 142.839 535.95 142.687C535.685 142.536 535.383 142.458 535.043 142.455C534.746 142.455 534.457 142.516 534.176 142.638C533.899 142.76 533.683 142.927 533.527 143.138L531.62 142.796L532.101 137.447H538.302V139.2H533.869L533.607 141.741H533.666C533.844 141.49 534.113 141.282 534.473 141.117C534.833 140.952 535.236 140.87 535.682 140.87C536.293 140.87 536.838 141.013 537.317 141.301C537.795 141.588 538.174 141.982 538.451 142.484C538.728 142.983 538.865 143.558 538.862 144.208C538.865 144.892 538.707 145.499 538.387 146.031C538.07 146.559 537.625 146.975 537.054 147.279C536.486 147.58 535.826 147.73 535.073 147.73ZM545.785 145.689V145.154C545.785 144.748 545.871 144.375 546.043 144.035C546.218 143.691 546.47 143.417 546.801 143.213C547.134 143.004 547.54 142.9 548.019 142.9C548.505 142.9 548.912 143.003 549.243 143.208C549.576 143.412 549.827 143.686 549.996 144.03C550.167 144.37 550.253 144.745 550.253 145.154V145.689C550.253 146.095 550.167 146.47 549.996 146.814C549.824 147.154 549.571 147.426 549.238 147.631C548.904 147.839 548.498 147.943 548.019 147.943C547.534 147.943 547.126 147.839 546.796 147.631C546.465 147.426 546.215 147.154 546.043 146.814C545.871 146.47 545.785 146.095 545.785 145.689ZM547.227 145.154V145.689C547.227 145.924 547.283 146.145 547.395 146.353C547.511 146.561 547.719 146.665 548.019 146.665C548.32 146.665 548.524 146.563 548.633 146.358C548.746 146.153 548.802 145.93 548.802 145.689V145.154C548.802 144.913 548.749 144.689 548.643 144.481C548.538 144.273 548.33 144.169 548.019 144.169C547.722 144.169 547.516 144.273 547.4 144.481C547.284 144.689 547.227 144.913 547.227 145.154ZM540.579 139.884V139.349C540.579 138.939 540.667 138.565 540.842 138.224C541.017 137.881 541.269 137.607 541.6 137.402C541.933 137.197 542.336 137.095 542.808 137.095C543.297 137.095 543.706 137.197 544.037 137.402C544.367 137.607 544.618 137.881 544.79 138.224C544.961 138.565 545.047 138.939 545.047 139.349V139.884C545.047 140.293 544.96 140.668 544.785 141.008C544.613 141.348 544.36 141.621 544.027 141.826C543.697 142.027 543.29 142.128 542.808 142.128C542.326 142.128 541.918 142.025 541.585 141.821C541.255 141.613 541.004 141.34 540.832 141.003C540.663 140.663 540.579 140.29 540.579 139.884ZM542.031 139.349V139.884C542.031 140.125 542.087 140.348 542.199 140.553C542.315 140.757 542.518 140.86 542.808 140.86C543.112 140.86 543.318 140.757 543.427 140.553C543.54 140.348 543.596 140.125 543.596 139.884V139.349C543.596 139.108 543.543 138.883 543.437 138.675C543.332 138.467 543.122 138.363 542.808 138.363C542.514 138.363 542.311 138.469 542.199 138.68C542.087 138.892 542.031 139.114 542.031 139.349ZM541.233 147.591L548.207 137.447H549.505L542.531 147.591H541.233Z" fill="#24CA49"/>
</g>
<path d="M427.485 108.844H425.315C425.276 108.563 425.195 108.314 425.073 108.096C424.95 107.875 424.793 107.687 424.602 107.531C424.41 107.376 424.189 107.257 423.938 107.175C423.691 107.092 423.421 107.051 423.131 107.051C422.606 107.051 422.148 107.181 421.759 107.442C421.369 107.7 421.067 108.076 420.852 108.572C420.638 109.064 420.53 109.661 420.53 110.365C420.53 111.088 420.638 111.696 420.852 112.188C421.07 112.68 421.374 113.051 421.764 113.302C422.153 113.553 422.604 113.679 423.116 113.679C423.403 113.679 423.669 113.641 423.913 113.565C424.161 113.489 424.381 113.378 424.572 113.233C424.764 113.084 424.922 112.904 425.048 112.693C425.177 112.481 425.266 112.24 425.315 111.97L427.485 111.98C427.429 112.445 427.288 112.894 427.064 113.327C426.843 113.756 426.544 114.141 426.167 114.481C425.794 114.818 425.348 115.085 424.83 115.283C424.315 115.478 423.732 115.576 423.081 115.576C422.176 115.576 421.367 115.371 420.654 114.961C419.944 114.552 419.383 113.959 418.97 113.183C418.56 112.407 418.356 111.468 418.356 110.365C418.356 109.258 418.564 108.317 418.98 107.541C419.396 106.765 419.961 106.174 420.674 105.768C421.387 105.359 422.19 105.154 423.081 105.154C423.669 105.154 424.214 105.236 424.716 105.401C425.221 105.567 425.669 105.808 426.058 106.125C426.448 106.438 426.765 106.823 427.009 107.279C427.257 107.735 427.415 108.256 427.485 108.844ZM431.027 115.581C430.542 115.581 430.109 115.496 429.729 115.328C429.35 115.156 429.049 114.904 428.828 114.57C428.61 114.233 428.501 113.814 428.501 113.312C428.501 112.889 428.579 112.534 428.734 112.247C428.889 111.96 429.1 111.729 429.368 111.554C429.635 111.379 429.939 111.246 430.279 111.157C430.623 111.068 430.983 111.005 431.359 110.969C431.802 110.923 432.158 110.88 432.429 110.84C432.7 110.797 432.896 110.735 433.019 110.652C433.141 110.569 433.202 110.447 433.202 110.285V110.256C433.202 109.942 433.103 109.699 432.905 109.528C432.71 109.356 432.432 109.27 432.072 109.27C431.693 109.27 431.39 109.354 431.166 109.523C430.941 109.688 430.793 109.896 430.72 110.147L428.769 109.988C428.868 109.526 429.062 109.126 429.353 108.79C429.644 108.449 430.018 108.189 430.477 108.007C430.94 107.822 431.475 107.73 432.082 107.73C432.505 107.73 432.91 107.779 433.296 107.878C433.686 107.977 434.031 108.131 434.331 108.339C434.635 108.547 434.874 108.814 435.049 109.141C435.224 109.465 435.312 109.853 435.312 110.305V115.437H433.311V114.382H433.251C433.129 114.62 432.966 114.829 432.761 115.011C432.556 115.189 432.31 115.33 432.023 115.432C431.736 115.531 431.404 115.581 431.027 115.581ZM431.632 114.124C431.942 114.124 432.216 114.063 432.454 113.941C432.692 113.816 432.878 113.647 433.014 113.436C433.149 113.225 433.217 112.985 433.217 112.718V111.91C433.151 111.953 433.06 111.993 432.944 112.029C432.832 112.062 432.705 112.093 432.563 112.123C432.421 112.15 432.279 112.174 432.137 112.198C431.995 112.217 431.866 112.235 431.75 112.252C431.503 112.288 431.286 112.346 431.102 112.425C430.917 112.505 430.773 112.612 430.671 112.747C430.568 112.879 430.517 113.045 430.517 113.243C430.517 113.53 430.621 113.75 430.829 113.901C431.04 114.05 431.308 114.124 431.632 114.124ZM443.154 109.998L441.222 110.117C441.189 109.952 441.118 109.803 441.009 109.671C440.9 109.536 440.756 109.429 440.578 109.349C440.403 109.267 440.193 109.225 439.949 109.225C439.622 109.225 439.346 109.295 439.122 109.434C438.897 109.569 438.785 109.751 438.785 109.978C438.785 110.16 438.858 110.314 439.003 110.439C439.148 110.565 439.398 110.665 439.751 110.741L441.128 111.019C441.868 111.17 442.419 111.415 442.782 111.752C443.146 112.089 443.327 112.531 443.327 113.079C443.327 113.578 443.18 114.015 442.886 114.392C442.596 114.768 442.196 115.062 441.688 115.274C441.182 115.482 440.6 115.586 439.939 115.586C438.932 115.586 438.13 115.376 437.532 114.957C436.937 114.534 436.589 113.959 436.487 113.233L438.562 113.124C438.625 113.431 438.777 113.665 439.018 113.827C439.259 113.986 439.568 114.065 439.944 114.065C440.314 114.065 440.611 113.994 440.836 113.852C441.064 113.707 441.179 113.52 441.182 113.292C441.179 113.101 441.098 112.944 440.94 112.822C440.781 112.696 440.537 112.6 440.207 112.534L438.889 112.272C438.146 112.123 437.593 111.866 437.23 111.499C436.87 111.133 436.69 110.665 436.69 110.097C436.69 109.609 436.822 109.187 437.086 108.834C437.353 108.481 437.728 108.208 438.21 108.017C438.696 107.825 439.264 107.73 439.914 107.73C440.875 107.73 441.632 107.933 442.183 108.339C442.738 108.745 443.061 109.298 443.154 109.998ZM446.641 111.038V115.437H444.53V105.292H446.581V109.171H446.67C446.842 108.722 447.119 108.37 447.502 108.116C447.886 107.858 448.366 107.73 448.944 107.73C449.472 107.73 449.933 107.845 450.326 108.076C450.722 108.304 451.029 108.633 451.247 109.062C451.469 109.488 451.577 109.998 451.574 110.593V115.437H449.464V110.969C449.467 110.5 449.348 110.135 449.107 109.874C448.87 109.613 448.536 109.483 448.107 109.483C447.82 109.483 447.565 109.544 447.344 109.666C447.126 109.789 446.954 109.967 446.829 110.201C446.707 110.432 446.644 110.711 446.641 111.038ZM453.149 115.437V105.292H455.259V109.107H455.323C455.416 108.902 455.55 108.694 455.725 108.482C455.903 108.268 456.134 108.089 456.418 107.948C456.705 107.802 457.062 107.73 457.488 107.73C458.043 107.73 458.555 107.875 459.024 108.165C459.493 108.453 459.867 108.887 460.148 109.468C460.429 110.046 460.569 110.771 460.569 111.643C460.569 112.491 460.432 113.208 460.158 113.792C459.887 114.374 459.517 114.815 459.048 115.115C458.583 115.412 458.061 115.561 457.483 115.561C457.074 115.561 456.725 115.493 456.438 115.358C456.154 115.222 455.921 115.052 455.74 114.848C455.558 114.64 455.419 114.43 455.323 114.218H455.229V115.437H453.149ZM455.214 111.633C455.214 112.085 455.277 112.48 455.403 112.817C455.528 113.154 455.71 113.416 455.948 113.604C456.185 113.789 456.474 113.882 456.814 113.882C457.158 113.882 457.448 113.788 457.686 113.599C457.924 113.408 458.104 113.144 458.226 112.807C458.352 112.467 458.414 112.075 458.414 111.633C458.414 111.194 458.353 110.807 458.231 110.474C458.109 110.14 457.929 109.879 457.691 109.691C457.453 109.503 457.161 109.409 456.814 109.409C456.471 109.409 456.18 109.5 455.943 109.681C455.708 109.863 455.528 110.12 455.403 110.454C455.277 110.787 455.214 111.18 455.214 111.633ZM464.021 115.581C463.536 115.581 463.103 115.496 462.723 115.328C462.344 115.156 462.043 114.904 461.822 114.57C461.604 114.233 461.495 113.814 461.495 113.312C461.495 112.889 461.572 112.534 461.728 112.247C461.883 111.96 462.094 111.729 462.362 111.554C462.629 111.379 462.933 111.246 463.273 111.157C463.617 111.068 463.977 111.005 464.353 110.969C464.795 110.923 465.152 110.88 465.423 110.84C465.694 110.797 465.89 110.735 466.012 110.652C466.135 110.569 466.196 110.447 466.196 110.285V110.256C466.196 109.942 466.097 109.699 465.898 109.528C465.704 109.356 465.426 109.27 465.066 109.27C464.686 109.27 464.384 109.354 464.16 109.523C463.935 109.688 463.787 109.896 463.714 110.147L461.762 109.988C461.861 109.526 462.056 109.126 462.347 108.79C462.637 108.449 463.012 108.189 463.471 108.007C463.934 107.822 464.469 107.73 465.076 107.73C465.499 107.73 465.903 107.779 466.29 107.878C466.679 107.977 467.024 108.131 467.325 108.339C467.629 108.547 467.868 108.814 468.043 109.141C468.218 109.465 468.306 109.853 468.306 110.305V115.437H466.305V114.382H466.245C466.123 114.62 465.96 114.829 465.755 115.011C465.55 115.189 465.304 115.33 465.017 115.432C464.729 115.531 464.398 115.581 464.021 115.581ZM464.625 114.124C464.936 114.124 465.21 114.063 465.448 113.941C465.685 113.816 465.872 113.647 466.007 113.436C466.143 113.225 466.21 112.985 466.21 112.718V111.91C466.144 111.953 466.054 111.993 465.938 112.029C465.826 112.062 465.699 112.093 465.557 112.123C465.415 112.15 465.273 112.174 465.131 112.198C464.989 112.217 464.86 112.235 464.744 112.252C464.497 112.288 464.28 112.346 464.095 112.425C463.91 112.505 463.767 112.612 463.664 112.747C463.562 112.879 463.511 113.045 463.511 113.243C463.511 113.53 463.615 113.75 463.823 113.901C464.034 114.05 464.302 114.124 464.625 114.124ZM473.255 115.586C472.476 115.586 471.805 115.421 471.244 115.09C470.686 114.757 470.257 114.294 469.956 113.703C469.659 113.112 469.51 112.432 469.51 111.663C469.51 110.883 469.66 110.2 469.961 109.612C470.265 109.021 470.696 108.56 471.254 108.23C471.812 107.896 472.476 107.73 473.245 107.73C473.909 107.73 474.49 107.85 474.989 108.091C475.487 108.332 475.882 108.671 476.173 109.107C476.463 109.542 476.623 110.054 476.653 110.642H474.662C474.606 110.262 474.457 109.957 474.216 109.726C473.978 109.491 473.666 109.374 473.28 109.374C472.953 109.374 472.667 109.463 472.423 109.642C472.182 109.817 471.993 110.073 471.858 110.409C471.723 110.746 471.655 111.154 471.655 111.633C471.655 112.118 471.721 112.531 471.853 112.871C471.989 113.211 472.178 113.471 472.423 113.649C472.667 113.827 472.953 113.916 473.28 113.916C473.521 113.916 473.737 113.867 473.929 113.768C474.123 113.669 474.284 113.525 474.409 113.337C474.538 113.145 474.622 112.916 474.662 112.648H476.653C476.62 113.229 476.461 113.741 476.177 114.184C475.897 114.623 475.509 114.966 475.013 115.214C474.518 115.462 473.932 115.586 473.255 115.586ZM479.79 113.248L479.795 110.716H480.103L482.54 107.829H484.962L481.688 111.653H481.187L479.79 113.248ZM477.878 115.437V105.292H479.989V115.437H477.878ZM482.634 115.437L480.395 112.123L481.802 110.632L485.105 115.437H482.634Z" fill="#262631"/>
</g>
<defs>
<filter id="filter0_d_315_10663" x="0.363213" y="0.576043" width="570.793" height="435.149" filterUnits="userSpaceOnUse" color-interpolation-filters="sRGB">
<feFlood flood-opacity="0" result="BackgroundImageFix"/>
<feColorMatrix in="SourceAlpha" type="matrix" values="0 0 0 0 0 0 0 0 0 0 0 0 0 0 0 0 0 0 127 0" result="hardAlpha"/>
<feOffset dy="4.07709"/>
<feGaussianBlur stdDeviation="30.5782"/>
<feComposite in2="hardAlpha" operator="out"/>
<feColorMatrix type="matrix" values="0 0 0 0 0 0 0 0 0 0 0 0 0 0 0 0 0 0 0.08 0"/>
<feBlend mode="normal" in2="BackgroundImageFix" result="effect1_dropShadow_315_10663"/>
<feBlend mode="normal" in="SourceGraphic" in2="effect1_dropShadow_315_10663" result="shape"/>
</filter>
<filter id="filter1_d_315_10663" x="350" y="81" width="316.207" height="202" filterUnits="userSpaceOnUse" color-interpolation-filters="sRGB">
<feFlood flood-opacity="0" result="BackgroundImageFix"/>
<feColorMatrix in="SourceAlpha" type="matrix" values="0 0 0 0 0 0 0 0 0 0 0 0 0 0 0 0 0 0 127 0" result="hardAlpha"/>
<feOffset dy="44"/>
<feGaussianBlur stdDeviation="25"/>
<feComposite in2="hardAlpha" operator="out"/>
<feColorMatrix type="matrix" values="0 0 0 0 0 0 0 0 0 0 0 0 0 0 0 0 0 0 0.08 0"/>
<feBlend mode="normal" in2="BackgroundImageFix" result="effect1_dropShadow_315_10663"/>
<feBlend mode="normal" in="SourceGraphic" in2="effect1_dropShadow_315_10663" result="shape"/>
</filter>
<clipPath id="clip0_315_10663">
<rect width="29.3284" height="29.3284" fill="white" transform="translate(115.289 111.424)"/>
</clipPath>
<clipPath id="clip1_315_10663">
<rect width="29.3284" height="29.3284" fill="white" transform="translate(115.289 199.409)"/>
</clipPath>
<clipPath id="clip2_315_10663">
<rect width="29.3284" height="29.3284" fill="white" transform="translate(436.68 287.394)"/>
</clipPath>
<clipPath id="clip3_315_10663">
<rect width="134.256" height="30.5128" fill="white" transform="translate(417.438 124.489)"/>
</clipPath>
</defs>
</svg>
